<?xml version="1.0" standalone="no"?><!-- Generator: Gravit.io --><svg xmlns="http://www.w3.org/2000/svg" xmlns:xlink="http://www.w3.org/1999/xlink" style="isolation:isolate" viewBox="0 0 2000 1334" width="2000" height="1334"><defs><clipPath id="_clipPath_YbLanF6cm3JmbNqiPphEln0JPpoCxv9P"><rect width="2000" height="1334"/></clipPath></defs><g clip-path="url(#_clipPath_YbLanF6cm3JmbNqiPphEln0JPpoCxv9P)"><path d=" M 159 437 L 159 914 L 399 914 L 399 887 L 431 887 L 431 857 L 459 857 L 459 826 L 482 826 L 482 583 L 454 583 L 454 510 L 417 510 L 417 482 L 367 482 L 367 457 L 281 457 L 281 437 L 159 437 Z " fill="rgb(254,175,55)"/><path d=" M 225 487 L 330 487 L 330 510 L 367 510 L 367 545 L 399 545 L 399 826 L 367 826 L 367 868 L 225 868 L 225 487 Z " fill="rgb(255,255,255)"/><path d=" M 399 655 L 339 712 L 320 680 L 313 675 Q 304.86 672.895 301 675 Q 298.789 676.206 296 680 L 296 680 C 293.792 685.519 295.972 696.5 300.865 704.506 L 325 744 Q 328 748.75 334 750 Q 340 751.25 340 751.25 C 344.415 750.56 352.602 745.101 358.27 739.067 L 379 717 L 399 744 L 399 790 L 373 816 L 373 826 L 373 826 L 399 826 L 399 598 L 399 598 L 392.6 593.2 C 389.509 590.882 384.409 590.727 381.217 592.855 L 381.217 592.855 C 352.95 611.7 328.095 628.466 325.749 630.272 Q 325.749 630.272 325 633 C 324.529 634.715 324.664 636.265 325 638 C 325.645 641.328 326.992 644.3 330 646 Q 334.48 648.532 343 643 L 379 618 L 399 633 L 399 655 Z " fill="rgb(0,0,0)"/><path d=" M 678 603 L 678 643 L 576 643 L 576 680 L 654 680 L 654 717 L 576 717 L 576 790 L 678 790 L 678 826 L 525 826 L 525 603 L 678 603 Z " fill="rgb(195,195,195)" vector-effect="non-scaling-stroke" stroke-width="2" stroke="rgb(127,127,127)" stroke-linejoin="miter" stroke-linecap="square" stroke-miterlimit="3"/><path d=" M 840 603 L 840 643 L 758 643 L 758 675 L 843 675 L 843 712 L 877 712 L 877 786 L 843 786 L 843 826 L 724 826 L 724 753 L 693 753 L 696 786 L 790 786 L 790 712 L 728 712 L 728 675 L 693 675 L 693 643 L 728 643 L 728 603 L 840 603 Z " fill="rgb(195,195,195)" vector-effect="non-scaling-stroke" stroke-width="2" stroke="rgb(127,127,127)" stroke-linejoin="miter" stroke-linecap="square" stroke-miterlimit="3"/><path d=" M 894 603 L 894 826 L 926 826 L 926 717 L 961 717 L 961 753 L 990 753 L 990 717 L 1024 717 L 1024 826 L 1088 826 L 1088 603 L 1024 603 L 1024 638 L 987 638 L 987 680 L 961 680 L 961 638 L 926 638 L 926 603 L 894 603 Z " fill="rgb(195,195,195)" vector-effect="non-scaling-stroke" stroke-width="2" stroke="rgb(126,126,126)" stroke-linejoin="miter" stroke-linecap="square" stroke-miterlimit="3"/><path d=" M 1122 660 L 1232 639 L 1181 598 Q 1156.53 612.039 1146 623 Q 1135.2 634.242 1122 660 Z " fill="rgb(195,195,195)" vector-effect="non-scaling-stroke" stroke-width="2" stroke="rgb(126,126,126)" stroke-linejoin="miter" stroke-linecap="square" stroke-miterlimit="3"/><path d=" M 1189 595.916 L 1281 666 L 1271.445 598 Q 1247.957 590.013 1234.607 589.169 Q 1218.321 588.14 1189 595.916 Z " fill="rgb(195,195,195)" vector-effect="non-scaling-stroke" stroke-width="2" stroke="rgb(126,126,126)" stroke-linejoin="miter" stroke-linecap="square" stroke-miterlimit="3"/><path d=" M 1280 603 L 1299.292 720 L 1335 665 Q 1323.995 641.633 1315 631 Q 1304.765 618.901 1280 603 Z " fill="rgb(195,195,195)" vector-effect="non-scaling-stroke" stroke-width="2" stroke="rgb(126,126,126)" stroke-linejoin="miter" stroke-linecap="square" stroke-miterlimit="3"/><path d=" M 1338 675 L 1276 772 L 1337 761 Q 1345.494 725.558 1344 706 Q 1343.153 694.914 1338 675 Z " fill="rgb(195,195,195)" vector-effect="non-scaling-stroke" stroke-width="2" stroke="rgb(126,126,126)" stroke-linejoin="miter" stroke-linecap="square" stroke-miterlimit="3"/><path d=" M 1333 770 L 1225 792 L 1274 830 Q 1296.839 816.915 1307 807 Q 1318.437 795.84 1333 770 Z " fill="rgb(195,195,195)" vector-effect="non-scaling-stroke" stroke-width="2" stroke="rgb(126,126,126)" stroke-linejoin="miter" stroke-linecap="square" stroke-miterlimit="3"/><path d=" M 1177 828 L 1156 711 L 1121 766 Q 1133.567 789.279 1143 800 Q 1153.267 811.669 1177 828 Z " fill="rgb(195,195,195)" vector-effect="non-scaling-stroke" stroke-width="2" stroke="rgb(126,126,126)" stroke-linejoin="miter" stroke-linecap="square" stroke-miterlimit="3"/><path d=" M 1265 833 L 1176 767 L 1186 832 Q 1211.404 839.96 1226 840 Q 1239.842 840.038 1265 833 Z " fill="rgb(195,195,195)" vector-effect="non-scaling-stroke" stroke-width="2" stroke="rgb(126,126,126)" stroke-linejoin="miter" stroke-linecap="square" stroke-miterlimit="3"/><path d=" M 1117.544 756 L 1179 659 L 1119 670 Q 1112.343 698.013 1112.146 713.558 Q 1111.956 728.638 1117.544 756 Z " fill="rgb(195,195,195)" vector-effect="non-scaling-stroke" stroke-width="2" stroke="rgb(126,126,126)" stroke-linejoin="miter" stroke-linecap="square" stroke-miterlimit="3"/><path d=" M 1364 600 L 1364 820 L 1395 820 L 1395 712 L 1429 712 L 1429 753 L 1462 753 L 1462 786 L 1494 786 L 1494 820 L 1559 820 L 1559 600 L 1494 600 L 1494 712 L 1462 712 L 1462 675 L 1429 675 L 1429 639 L 1395 639 L 1395 600 L 1364 600 Z " fill="rgb(195,195,195)" vector-effect="non-scaling-stroke" stroke-width="2" stroke="rgb(126,126,126)" stroke-linejoin="miter" stroke-linecap="square" stroke-miterlimit="3"/><path d=" M 1587 483.5 L 1587 866.5 L 1779.705 866.5 L 1779.705 844.821 L 1805.398 844.821 L 1805.398 820.733 L 1827.881 820.733 L 1827.881 795.842 L 1846.348 795.842 L 1846.348 600.728 L 1823.866 600.728 L 1823.866 542.114 L 1794.157 542.114 L 1794.157 519.632 L 1754.011 519.632 L 1754.011 499.559 L 1684.958 499.559 L 1684.958 483.5 L 1587 483.5 Z " fill="rgb(27,164,229)"/><path d=" M 1639.994 519.632 L 1724.302 519.632 L 1724.302 538.73 L 1754.011 538.73 L 1754.011 567.793 L 1779.705 567.793 L 1779.705 801.125 L 1754.011 801.125 L 1754.011 836 L 1639.994 836 L 1639.994 519.632 Z " fill="rgb(255,255,255)"/><path d=" M 1639.994 593 L 1715 652 L 1723.707 695.06 C 1724.036 696.682 1725.378 698.806 1726.703 699.799 L 1761.4 725.801 C 1762.283 726.463 1763.432 727.785 1763.965 728.752 Q 1766.815 733.927 1766 738 C 1765.532 740.339 1764.566 742.204 1763 744 Q 1759.445 748.077 1749 748 L 1706.343 713.874 C 1705.05 712.84 1703.649 710.702 1703.217 709.104 L 1694 675 L 1650 722 L 1686.537 776.36 C 1689 780.025 1688.44 785.509 1685.287 788.6 L 1639.994 833 L 1639.994 788 L 1650 779 L 1639.994 767 L 1639.994 593 Z " fill="rgb(0,0,0)"/><path d=" M 1674.849 594.416 C 1674.849 575.099 1690.532 559.416 1709.849 559.416 C 1729.166 559.416 1744.849 575.099 1744.849 594.416 C 1744.849 613.733 1729.166 629.416 1709.849 629.416 C 1690.532 629.416 1674.849 613.733 1674.849 594.416 Z " fill="rgb(0,0,0)"/></g></svg>