<?xml version="1.0" standalone="no"?><svg id="svg" version="1.1" xmlns="http://www.w3.org/2000/svg" xmlns:xlink="http://www.w3.org/1999/xlink" width="400" height="400" viewBox="0, 0, 400,400"><g id="svgg"><path id="path0" d="M44.376 153.026 C 43.949 153.480,43.600 154.048,43.600 154.289 C 43.600 154.530,42.068 156.318,40.195 158.263 C 38.322 160.209,34.677 164.014,32.095 166.720 C 23.829 175.383,17.960 181.062,15.600 182.682 C 15.050 183.059,13.939 184.050,13.131 184.884 C 12.324 185.718,11.553 186.400,11.418 186.400 C 11.026 186.400,8.400 189.136,8.400 189.544 C 8.400 190.107,9.642 190.463,10.151 190.045 C 10.398 189.842,11.680 189.578,13.000 189.458 C 16.758 189.117,18.786 188.747,19.026 188.358 C 19.148 188.161,19.777 188.000,20.424 188.000 C 21.071 188.000,21.600 187.820,21.600 187.600 C 21.600 187.380,22.129 187.200,22.776 187.200 C 23.423 187.200,24.064 187.020,24.200 186.800 C 24.336 186.580,24.797 186.400,25.224 186.400 C 25.651 186.400,26.000 186.220,26.000 186.000 C 26.000 185.780,26.540 185.600,27.200 185.600 C 27.860 185.600,28.400 185.420,28.400 185.200 C 28.400 184.980,28.760 184.800,29.200 184.800 C 29.640 184.800,30.000 184.620,30.000 184.400 C 30.000 184.180,30.439 184.000,30.976 184.000 C 31.513 184.000,32.064 183.820,32.200 183.600 C 32.336 183.380,32.797 183.200,33.224 183.200 C 33.651 183.200,34.000 183.020,34.000 182.800 C 34.000 182.580,34.360 182.400,34.800 182.400 C 35.240 182.400,35.600 182.220,35.600 182.000 C 35.600 181.780,35.960 181.600,36.400 181.600 C 36.840 181.600,37.200 181.420,37.200 181.200 C 37.200 180.980,37.560 180.800,38.000 180.800 C 38.440 180.800,38.800 180.664,38.800 180.498 C 38.800 180.331,39.385 179.940,40.100 179.628 C 40.815 179.316,41.691 178.732,42.047 178.330 C 42.403 177.929,42.988 177.600,43.347 177.600 C 43.706 177.600,44.000 177.420,44.000 177.200 C 44.000 176.980,44.360 176.800,44.800 176.800 C 45.240 176.800,45.600 176.637,45.600 176.438 C 45.600 176.239,46.680 175.577,48.000 174.968 C 49.320 174.358,50.400 173.711,50.400 173.530 C 50.400 173.348,50.636 173.200,50.925 173.200 C 51.213 173.200,51.798 172.885,52.225 172.500 C 52.651 172.115,53.495 171.545,54.100 171.232 C 54.705 170.920,55.200 170.515,55.200 170.332 C 55.200 170.150,55.393 170.000,55.629 170.000 C 55.864 170.000,56.351 169.706,56.711 169.346 C 57.226 168.832,57.402 168.806,57.542 169.226 C 57.640 169.520,57.513 169.829,57.260 169.913 C 57.007 169.998,56.800 170.412,56.800 170.833 C 56.800 171.255,56.620 171.600,56.400 171.600 C 56.180 171.600,56.000 171.960,56.000 172.400 C 56.000 172.840,55.820 173.200,55.600 173.200 C 55.380 173.200,55.200 173.560,55.200 174.000 C 55.200 174.440,55.020 174.800,54.800 174.800 C 54.580 174.800,54.400 175.160,54.400 175.600 C 54.400 176.040,54.220 176.400,54.000 176.400 C 53.780 176.400,53.600 176.760,53.600 177.200 C 53.600 177.640,53.465 178.001,53.300 178.001 C 53.135 178.002,52.550 178.992,52.000 180.200 C 51.450 181.408,50.865 182.398,50.700 182.399 C 50.535 182.399,50.400 182.760,50.400 183.200 C 50.400 183.640,50.220 184.000,50.000 184.000 C 49.780 184.000,49.600 184.236,49.600 184.525 C 49.600 184.813,49.240 185.436,48.800 185.908 C 48.360 186.380,48.000 187.044,48.000 187.383 C 48.000 187.722,47.820 188.000,47.600 188.000 C 47.380 188.000,47.200 188.360,47.200 188.800 C 47.200 189.240,47.032 189.600,46.827 189.600 C 46.622 189.600,46.340 189.959,46.201 190.398 C 46.062 190.836,45.732 191.421,45.469 191.698 C 44.642 192.564,43.600 194.349,43.600 194.898 C 43.600 195.187,43.240 195.683,42.800 196.000 C 42.360 196.317,42.000 196.857,42.000 197.200 C 42.000 197.543,41.640 198.083,41.200 198.400 C 40.760 198.717,40.400 199.257,40.400 199.600 C 40.400 199.943,40.040 200.483,39.600 200.800 C 39.160 201.117,38.800 201.580,38.800 201.829 C 38.800 202.078,38.260 202.846,37.600 203.537 C 36.940 204.228,36.400 204.976,36.400 205.200 C 36.400 205.424,35.860 206.172,35.200 206.863 C 34.540 207.554,34.000 208.290,34.000 208.499 C 34.000 208.708,33.460 209.383,32.800 210.000 C 32.140 210.617,31.600 211.309,31.600 211.538 C 31.600 211.767,31.280 212.190,30.889 212.477 C 30.192 212.990,29.192 214.213,28.000 216.013 C 27.670 216.512,26.635 217.698,25.700 218.649 C 24.765 219.601,24.000 220.571,24.000 220.807 C 24.000 221.213,22.718 222.512,13.834 231.111 C 11.725 233.152,10.000 234.997,10.000 235.211 C 10.000 235.425,9.757 235.600,9.461 235.600 C 8.666 235.600,4.088 240.116,4.292 240.700 C 4.500 241.296,7.442 241.380,7.800 240.800 C 7.936 240.580,8.476 240.400,9.000 240.400 C 9.524 240.400,10.042 240.256,10.151 240.079 C 10.260 239.903,11.261 239.510,12.375 239.207 C 13.489 238.904,14.400 238.508,14.400 238.328 C 14.400 238.147,14.625 238.001,14.900 238.003 C 15.420 238.007,22.049 234.802,22.400 234.378 C 22.510 234.245,23.185 233.881,23.900 233.570 C 24.615 233.259,25.200 232.869,25.200 232.702 C 25.200 232.536,25.520 232.400,25.912 232.400 C 26.303 232.400,26.883 232.040,27.200 231.600 C 27.517 231.160,28.097 230.800,28.488 230.800 C 28.880 230.800,29.200 230.620,29.200 230.400 C 29.200 230.180,29.436 230.000,29.725 230.000 C 30.013 230.000,30.636 229.640,31.108 229.200 C 31.580 228.760,32.204 228.400,32.495 228.400 C 32.786 228.400,33.283 228.040,33.600 227.600 C 33.917 227.160,34.373 226.800,34.613 226.800 C 34.853 226.800,35.409 226.464,35.850 226.054 C 36.290 225.644,37.089 225.076,37.625 224.793 C 38.773 224.186,40.225 223.096,42.273 221.300 C 43.089 220.585,43.919 220.000,44.118 220.000 C 44.316 220.000,44.983 219.460,45.600 218.800 C 46.217 218.140,46.901 217.600,47.120 217.600 C 47.339 217.600,48.438 216.700,49.561 215.600 C 50.685 214.500,51.767 213.600,51.967 213.600 C 52.167 213.600,53.427 212.520,54.768 211.200 C 56.108 209.880,57.356 208.800,57.540 208.800 C 57.725 208.800,60.538 206.184,63.792 202.988 C 67.046 199.791,69.807 197.274,69.928 197.394 C 70.048 197.515,69.934 197.826,69.673 198.087 C 69.413 198.347,69.200 198.974,69.200 199.480 C 69.200 199.986,69.020 200.400,68.800 200.400 C 68.580 200.400,68.400 200.839,68.400 201.376 C 68.400 201.913,68.220 202.464,68.000 202.600 C 67.780 202.736,67.600 203.197,67.600 203.624 C 67.600 204.051,67.420 204.400,67.200 204.400 C 66.980 204.400,66.800 204.760,66.800 205.200 C 66.800 205.640,66.620 206.000,66.400 206.000 C 66.180 206.000,66.000 206.360,66.000 206.800 C 66.000 207.240,65.820 207.600,65.600 207.600 C 65.380 207.600,65.200 207.960,65.200 208.400 C 65.200 208.840,65.020 209.200,64.800 209.200 C 64.580 209.200,64.400 209.472,64.400 209.805 C 64.400 210.366,63.670 211.937,63.195 212.400 C 63.082 212.510,62.544 213.500,62.000 214.600 C 61.456 215.700,60.888 216.692,60.737 216.804 C 60.587 216.916,60.340 217.501,60.188 218.104 C 60.037 218.707,59.753 219.200,59.557 219.200 C 59.360 219.200,59.200 219.478,59.200 219.817 C 59.200 220.156,58.840 220.820,58.400 221.292 C 57.960 221.764,57.600 222.387,57.600 222.675 C 57.600 222.964,57.420 223.200,57.200 223.200 C 56.980 223.200,56.800 223.520,56.800 223.912 C 56.800 224.303,56.440 224.883,56.000 225.200 C 55.560 225.517,55.200 226.054,55.200 226.392 C 55.200 226.731,54.840 227.232,54.400 227.507 C 53.960 227.782,53.600 228.236,53.600 228.515 C 53.600 228.795,53.240 229.283,52.800 229.600 C 52.360 229.917,52.000 230.373,52.000 230.613 C 52.000 230.853,51.680 231.398,51.289 231.825 C 50.898 232.251,50.138 233.230,49.600 234.000 C 49.063 234.770,48.213 235.848,47.711 236.396 C 47.210 236.944,46.800 237.520,46.800 237.678 C 46.800 237.835,46.339 238.425,45.775 238.988 C 42.900 241.864,48.388 242.649,53.287 240.064 C 56.345 238.450,58.994 236.599,60.915 234.735 C 61.785 233.891,62.656 233.200,62.850 233.200 C 63.346 233.200,76.792 219.743,78.223 217.814 C 78.870 216.942,80.435 215.171,81.700 213.879 C 82.965 212.587,84.000 211.361,84.000 211.155 C 84.000 210.948,84.765 209.999,85.700 209.046 C 87.722 206.986,89.895 204.359,90.998 202.642 C 91.437 201.959,92.292 200.878,92.898 200.241 C 93.504 199.603,94.000 198.910,94.000 198.701 C 94.000 198.492,94.540 197.817,95.200 197.200 C 95.860 196.583,96.400 195.881,96.400 195.640 C 96.400 195.398,97.120 194.459,98.000 193.552 L 99.600 191.904 99.600 194.128 C 99.600 195.352,99.420 196.464,99.200 196.600 C 98.980 196.736,98.800 197.456,98.800 198.200 C 98.800 198.944,98.620 199.664,98.400 199.800 C 98.180 199.936,98.000 200.566,98.000 201.200 C 98.000 201.834,97.820 202.464,97.600 202.600 C 97.380 202.736,97.200 203.251,97.200 203.744 C 97.200 204.237,97.057 204.811,96.882 205.020 C 96.707 205.229,96.335 206.120,96.055 207.000 C 95.525 208.668,95.303 209.238,94.241 211.660 C 93.888 212.464,93.600 213.409,93.600 213.760 C 93.600 214.112,93.420 214.400,93.200 214.400 C 92.980 214.400,92.800 214.665,92.800 214.988 C 92.800 215.311,92.440 216.217,92.000 217.000 C 91.560 217.783,91.200 218.779,91.200 219.212 C 91.200 219.645,91.020 220.000,90.800 220.000 C 90.580 220.000,90.400 220.360,90.400 220.800 C 90.400 221.240,90.220 221.600,90.000 221.600 C 89.780 221.600,89.600 221.870,89.600 222.200 C 89.600 222.530,89.420 222.800,89.200 222.800 C 88.980 222.800,88.800 223.070,88.800 223.400 C 88.800 223.730,88.620 224.000,88.400 224.000 C 88.180 224.000,88.000 224.360,88.000 224.800 C 88.000 225.240,87.820 225.600,87.600 225.600 C 87.380 225.600,87.200 225.960,87.200 226.400 C 87.200 226.840,87.020 227.200,86.800 227.200 C 86.580 227.200,86.400 227.470,86.400 227.800 C 86.400 228.130,86.241 228.400,86.047 228.400 C 85.852 228.400,85.593 228.715,85.471 229.100 C 85.183 230.009,83.988 231.953,83.100 232.958 C 82.715 233.394,82.400 233.972,82.400 234.242 C 82.400 234.512,82.258 234.793,82.086 234.867 C 81.388 235.162,79.940 237.667,80.150 238.214 C 80.400 238.866,82.400 239.031,82.400 238.400 C 82.400 238.180,82.760 238.000,83.200 238.000 C 83.640 238.000,84.000 237.820,84.000 237.600 C 84.000 237.380,84.360 237.200,84.800 237.200 C 85.240 237.200,85.600 237.020,85.600 236.800 C 85.600 236.580,85.836 236.400,86.125 236.400 C 86.413 236.400,86.998 236.085,87.425 235.700 C 87.851 235.315,88.695 234.745,89.300 234.432 C 89.905 234.120,90.400 233.715,90.400 233.532 C 90.400 233.350,90.598 233.200,90.840 233.200 C 91.081 233.200,91.783 232.660,92.400 232.000 C 93.017 231.340,93.699 230.800,93.918 230.800 C 95.005 230.800,110.378 215.377,110.395 214.269 C 110.398 214.086,111.120 213.246,112.000 212.400 C 112.880 211.554,113.600 210.651,113.600 210.392 C 113.600 210.133,114.140 209.417,114.800 208.800 C 115.460 208.183,116.000 207.570,116.000 207.436 C 116.000 207.302,116.540 206.628,117.200 205.937 C 117.860 205.246,118.400 204.438,118.400 204.141 C 118.400 203.843,118.550 203.600,118.732 203.600 C 118.915 203.600,119.319 203.105,119.630 202.500 C 119.940 201.895,120.466 201.128,120.797 200.796 C 121.348 200.244,121.636 199.793,122.962 197.415 C 123.203 196.984,123.646 196.365,123.947 196.040 C 124.248 195.714,124.671 194.943,124.886 194.324 C 125.102 193.706,125.441 193.200,125.639 193.200 C 125.838 193.200,126.000 192.840,126.000 192.400 C 126.000 191.960,126.180 191.600,126.400 191.600 C 126.620 191.600,126.800 191.412,126.800 191.183 C 126.800 190.954,127.160 190.380,127.600 189.908 C 128.040 189.436,128.400 188.813,128.400 188.525 C 128.400 188.236,128.580 188.000,128.800 188.000 C 129.020 188.000,129.200 187.722,129.200 187.383 C 129.200 187.044,129.560 186.380,130.000 185.908 C 130.440 185.436,130.800 184.813,130.800 184.525 C 130.800 184.236,130.997 184.000,131.237 184.000 C 131.527 184.000,131.596 184.707,131.443 186.100 C 131.316 187.255,131.102 189.235,130.969 190.500 C 130.835 191.765,130.563 192.800,130.363 192.800 C 130.163 192.800,130.000 193.419,130.000 194.176 C 130.000 194.933,129.820 195.664,129.600 195.800 C 129.380 195.936,129.200 196.399,129.200 196.829 C 129.200 197.259,128.992 198.013,128.738 198.505 C 127.807 200.306,127.650 200.729,127.383 202.151 C 127.233 202.948,126.951 203.600,126.755 203.600 C 126.560 203.600,126.400 203.834,126.400 204.120 C 126.400 204.856,125.459 206.793,125.100 206.797 C 124.935 206.799,124.800 207.160,124.800 207.600 C 124.800 208.040,124.620 208.400,124.400 208.400 C 124.180 208.400,124.000 208.760,124.000 209.200 C 124.000 209.640,123.820 210.000,123.600 210.000 C 123.380 210.000,123.200 210.270,123.200 210.600 C 123.200 210.930,123.020 211.200,122.800 211.200 C 122.580 211.200,122.400 211.436,122.400 211.725 C 122.400 212.013,122.085 212.598,121.700 213.025 C 121.315 213.451,120.745 214.295,120.432 214.900 C 120.120 215.505,119.715 216.000,119.532 216.000 C 119.350 216.000,119.200 216.540,119.200 217.200 C 119.200 218.442,122.321 219.099,123.000 218.000 C 123.136 217.780,123.867 217.600,124.624 217.600 C 125.381 217.600,126.000 217.420,126.000 217.200 C 126.000 216.980,126.360 216.800,126.800 216.800 C 127.240 216.800,127.600 216.620,127.600 216.400 C 127.600 216.180,127.920 216.000,128.312 216.000 C 128.703 216.000,129.283 215.640,129.600 215.200 C 129.917 214.760,130.414 214.400,130.704 214.400 C 131.434 214.400,141.035 204.751,141.377 203.673 C 141.529 203.193,141.822 202.800,142.027 202.800 C 142.232 202.800,142.400 202.480,142.400 202.088 C 142.400 201.697,142.760 201.117,143.200 200.800 C 143.640 200.483,144.000 199.943,144.000 199.600 C 144.000 199.257,144.360 198.717,144.800 198.400 C 145.240 198.083,145.600 197.503,145.600 197.112 C 145.600 196.720,145.780 196.400,146.000 196.400 C 146.220 196.400,146.400 196.040,146.400 195.600 C 146.400 195.160,146.580 194.800,146.800 194.800 C 147.020 194.800,147.200 194.440,147.200 194.000 C 147.200 193.560,147.380 193.200,147.600 193.200 C 147.820 193.200,148.000 192.840,148.000 192.400 C 148.000 191.960,148.180 191.600,148.400 191.600 C 148.620 191.600,148.800 191.330,148.800 191.000 C 148.800 190.670,148.980 190.400,149.200 190.400 C 149.420 190.400,149.600 190.040,149.600 189.600 C 149.600 189.160,149.780 188.800,150.000 188.800 C 150.220 188.800,150.400 188.451,150.400 188.024 C 150.400 187.597,150.580 187.136,150.800 187.000 C 151.020 186.864,151.200 186.313,151.200 185.776 C 151.200 185.239,151.380 184.800,151.600 184.800 C 151.820 184.800,152.000 184.361,152.000 183.824 C 152.000 183.287,152.180 182.736,152.400 182.600 C 152.620 182.464,152.800 181.924,152.800 181.400 C 152.800 180.876,152.980 180.336,153.200 180.200 C 153.420 180.064,153.600 179.434,153.600 178.800 C 153.600 178.166,153.780 177.536,154.000 177.400 C 154.220 177.264,154.400 176.713,154.400 176.176 C 154.400 175.639,154.580 175.200,154.800 175.200 C 155.020 175.200,155.200 175.560,155.200 176.000 C 155.200 176.440,155.380 176.800,155.600 176.800 C 155.820 176.800,156.000 177.340,156.000 178.000 C 156.000 178.660,156.180 179.200,156.400 179.200 C 156.620 179.200,156.800 179.740,156.800 180.400 C 156.800 181.060,156.980 181.600,157.200 181.600 C 157.420 181.600,157.600 182.140,157.600 182.800 C 157.600 183.460,157.780 184.000,158.000 184.000 C 158.220 184.000,158.400 184.900,158.400 186.000 C 158.400 187.100,158.580 188.000,158.800 188.000 C 159.042 188.000,159.200 189.725,159.200 192.376 C 159.200 194.863,159.027 196.860,158.800 197.000 C 158.580 197.136,158.400 197.777,158.400 198.424 C 158.400 199.071,158.220 199.600,158.000 199.600 C 157.780 199.600,157.600 199.960,157.600 200.400 C 157.600 200.840,157.450 201.200,157.268 201.200 C 157.085 201.200,156.680 201.695,156.368 202.300 C 155.676 203.641,154.988 204.400,154.465 204.400 C 153.250 204.400,144.187 214.500,143.727 216.366 C 143.587 216.935,143.141 217.691,142.736 218.047 C 142.331 218.403,142.000 218.988,142.000 219.347 C 142.000 219.706,141.820 220.000,141.600 220.000 C 141.380 220.000,141.200 220.360,141.200 220.800 C 141.200 221.240,141.020 221.600,140.800 221.600 C 140.580 221.600,140.400 221.960,140.400 222.400 C 140.400 222.840,140.220 223.200,140.000 223.200 C 139.780 223.200,139.600 223.560,139.600 224.000 C 139.600 224.440,139.420 224.800,139.200 224.800 C 138.980 224.800,138.800 225.072,138.800 225.405 C 138.800 225.738,138.641 226.323,138.447 226.705 C 138.252 227.087,137.892 227.895,137.647 228.500 C 137.401 229.105,136.999 230.095,136.753 230.700 C 136.508 231.305,136.148 232.113,135.953 232.495 C 135.759 232.877,135.600 233.552,135.600 233.995 C 135.600 234.438,135.420 234.800,135.200 234.800 C 134.980 234.800,134.800 235.340,134.800 236.000 C 134.800 236.660,134.620 237.200,134.400 237.200 C 134.180 237.200,134.000 237.740,134.000 238.400 C 134.000 239.060,133.820 239.600,133.600 239.600 C 133.380 239.600,133.200 240.140,133.200 240.800 C 133.200 241.460,133.020 242.000,132.800 242.000 C 132.580 242.000,132.400 242.362,132.400 242.805 C 132.400 243.583,132.258 243.969,131.262 245.895 C 131.008 246.387,130.800 247.062,130.800 247.395 C 130.800 247.728,130.620 248.000,130.400 248.000 C 130.180 248.000,130.000 248.360,130.000 248.800 C 130.000 249.240,129.820 249.600,129.600 249.600 C 129.380 249.600,129.200 249.878,129.200 250.218 C 129.200 250.910,127.738 252.508,126.763 252.882 C 125.195 253.484,125.011 252.730,124.717 244.515 C 124.340 234.002,124.004 229.481,123.563 229.020 C 123.363 228.811,123.200 228.398,123.200 228.102 C 123.200 227.376,121.383 225.600,120.642 225.600 C 120.315 225.600,119.936 225.420,119.800 225.200 C 119.664 224.980,118.854 224.800,118.000 224.800 C 117.146 224.800,116.336 224.980,116.200 225.200 C 116.064 225.420,115.243 225.600,114.376 225.600 C 113.509 225.600,112.800 225.780,112.800 226.000 C 112.800 226.220,112.350 226.400,111.800 226.400 C 111.250 226.400,110.800 226.555,110.800 226.744 C 110.800 226.933,109.818 227.189,108.617 227.313 C 106.388 227.543,103.600 229.540,103.600 230.907 C 103.600 231.200,103.388 231.652,103.128 231.912 C 102.780 232.260,102.770 232.622,103.092 233.292 C 103.331 233.791,103.628 234.515,103.751 234.900 C 104.080 235.927,104.662 235.757,105.464 234.400 C 105.854 233.740,106.404 233.200,106.686 233.200 C 106.969 233.200,107.200 233.020,107.200 232.800 C 107.200 232.580,107.549 232.400,107.976 232.400 C 108.403 232.400,108.864 232.220,109.000 232.000 C 109.553 231.105,109.911 231.725,110.171 234.028 C 110.474 236.704,111.945 238.800,113.520 238.800 C 113.978 238.800,114.464 238.980,114.600 239.200 C 114.736 239.420,115.647 239.600,116.624 239.600 L 118.400 239.600 118.400 243.800 C 118.400 246.333,118.241 248.000,118.000 248.000 C 117.780 248.000,117.594 248.585,117.587 249.300 C 117.563 251.754,116.755 252.182,115.065 250.634 C 114.259 249.896,113.600 249.183,113.600 249.051 C 113.600 248.737,112.529 247.432,110.900 245.760 C 110.185 245.027,109.600 244.318,109.600 244.185 C 109.600 244.052,109.375 243.692,109.100 243.385 C 108.330 242.527,107.862 241.920,106.799 240.400 C 104.427 237.010,102.619 235.600,100.644 235.600 C 99.630 235.600,98.800 235.780,98.800 236.000 C 98.800 236.220,98.517 236.400,98.171 236.400 C 96.701 236.400,94.800 239.692,94.800 242.238 C 94.800 243.904,94.620 244.232,92.600 246.252 C 91.390 247.462,90.400 248.710,90.400 249.026 C 90.400 249.342,90.220 249.600,90.000 249.600 C 89.767 249.600,89.600 250.933,89.600 252.800 C 89.600 254.560,89.736 256.000,89.902 256.000 C 90.069 256.000,90.435 256.521,90.717 257.157 C 91.600 259.151,92.823 259.077,92.544 257.047 C 92.292 255.203,93.163 253.201,95.030 251.333 L 96.045 250.319 97.653 251.959 C 98.538 252.862,99.518 253.600,99.831 253.600 C 100.144 253.600,100.400 253.780,100.400 254.000 C 100.400 254.731,103.743 254.427,104.800 253.600 C 105.350 253.170,106.115 252.814,106.500 252.809 C 106.885 252.804,107.200 252.620,107.200 252.400 C 107.200 251.840,108.877 251.924,109.600 252.521 C 110.605 253.350,111.200 254.717,111.200 256.195 L 111.200 257.600 108.200 257.600 C 106.467 257.600,105.200 257.769,105.200 258.000 C 105.200 258.248,103.000 258.400,99.400 258.400 C 95.800 258.400,93.600 258.552,93.600 258.800 C 93.600 259.020,93.260 259.200,92.845 259.200 C 92.314 259.200,92.039 259.552,91.916 260.389 L 91.742 261.577 110.371 261.689 L 129.000 261.800 130.692 260.200 C 133.287 257.746,134.083 257.066,135.600 256.011 C 136.370 255.476,137.270 254.758,137.600 254.416 C 137.930 254.074,138.695 253.540,139.300 253.230 C 139.905 252.919,140.400 252.515,140.400 252.332 C 140.400 252.150,140.630 252.000,140.912 252.000 C 141.193 252.000,141.683 251.640,142.000 251.200 C 142.317 250.760,142.897 250.400,143.288 250.400 C 143.680 250.400,144.000 250.220,144.000 250.000 C 144.000 249.780,144.320 249.600,144.712 249.600 C 145.103 249.600,145.683 249.240,146.000 248.800 C 146.317 248.360,146.814 248.000,147.105 248.000 C 147.396 248.000,148.020 247.640,148.492 247.200 C 148.964 246.760,149.587 246.400,149.875 246.400 C 150.164 246.400,150.400 246.220,150.400 246.000 C 150.400 245.780,150.720 245.600,151.112 245.600 C 151.503 245.600,152.083 245.240,152.400 244.800 C 152.717 244.360,153.231 244.000,153.541 244.000 C 153.852 244.000,154.397 243.683,154.753 243.294 C 155.109 242.906,156.094 242.231,156.943 241.794 C 157.791 241.358,159.186 240.325,160.043 239.500 C 160.900 238.675,161.736 237.995,161.900 237.989 C 162.433 237.970,164.983 235.390,165.568 234.279 C 165.880 233.685,166.285 233.200,166.468 233.200 C 166.936 233.200,166.883 234.302,166.400 234.600 C 166.180 234.736,166.000 235.377,166.000 236.024 C 166.000 236.671,165.820 237.200,165.600 237.200 C 165.380 237.200,165.200 237.549,165.200 237.976 C 165.200 238.403,165.020 238.864,164.800 239.000 C 164.580 239.136,164.400 239.687,164.400 240.224 C 164.400 240.761,164.220 241.200,164.000 241.200 C 163.780 241.200,163.600 241.560,163.600 242.000 C 163.600 242.440,163.420 242.800,163.200 242.800 C 162.980 242.800,162.800 243.055,162.800 243.367 C 162.800 243.679,162.170 245.121,161.400 246.573 C 160.630 248.024,160.000 249.479,160.000 249.806 C 160.000 250.133,159.820 250.400,159.600 250.400 C 159.380 250.400,159.200 250.760,159.200 251.200 C 159.200 251.640,159.020 252.000,158.800 252.000 C 158.580 252.000,158.400 252.360,158.400 252.800 C 158.400 253.240,158.220 253.600,158.000 253.600 C 157.780 253.600,157.600 253.920,157.600 254.312 C 157.600 254.703,157.240 255.283,156.800 255.600 C 156.360 255.917,156.000 256.497,156.000 256.888 C 156.000 257.280,155.820 257.600,155.600 257.600 C 155.380 257.600,155.200 257.960,155.200 258.400 C 155.200 258.840,155.020 259.200,154.800 259.200 C 154.580 259.200,154.400 259.470,154.400 259.800 C 154.400 260.130,154.220 260.400,154.000 260.400 C 153.780 260.400,153.600 260.670,153.600 261.000 C 153.600 261.530,158.844 261.600,198.400 261.600 C 242.933 261.600,243.200 261.595,243.200 260.800 C 243.200 260.360,243.020 260.000,242.800 260.000 C 242.580 260.000,242.400 259.640,242.400 259.200 C 242.400 258.760,242.220 258.400,242.000 258.400 C 241.780 258.400,241.600 258.113,241.600 257.762 C 241.600 257.056,240.373 254.677,239.900 254.467 C 239.735 254.393,239.600 253.988,239.600 253.567 C 239.600 253.145,239.420 252.800,239.200 252.800 C 238.980 252.800,238.800 252.440,238.800 252.000 C 238.800 251.560,238.620 251.200,238.400 251.200 C 238.180 251.200,238.000 250.840,238.000 250.400 C 238.000 249.960,237.820 249.600,237.600 249.600 C 237.380 249.600,237.200 249.240,237.200 248.800 C 237.200 248.360,237.020 248.000,236.800 248.000 C 236.580 248.000,236.400 247.651,236.400 247.224 C 236.400 246.797,236.220 246.336,236.000 246.200 C 235.780 246.064,235.600 245.603,235.600 245.176 C 235.600 244.749,235.420 244.400,235.200 244.400 C 234.980 244.400,234.800 244.040,234.800 243.600 C 234.800 243.160,234.620 242.800,234.400 242.800 C 234.180 242.800,234.000 242.260,234.000 241.600 C 234.000 240.940,233.820 240.400,233.600 240.400 C 233.380 240.400,233.200 239.860,233.200 239.200 C 233.200 238.540,233.020 238.000,232.800 238.000 C 232.580 238.000,232.400 237.714,232.400 237.365 C 232.400 236.975,233.321 237.632,234.785 239.065 C 238.261 242.468,239.118 243.200,239.625 243.200 C 239.875 243.200,240.583 243.740,241.200 244.400 C 241.817 245.060,242.569 245.600,242.872 245.600 C 243.175 245.600,243.683 245.960,244.000 246.400 C 244.317 246.840,244.807 247.200,245.088 247.200 C 245.370 247.200,245.600 247.380,245.600 247.600 C 245.600 247.820,245.836 248.000,246.125 248.000 C 246.413 248.000,247.036 248.360,247.508 248.800 C 247.980 249.240,248.562 249.600,248.800 249.600 C 249.038 249.600,249.620 249.960,250.092 250.400 C 250.564 250.840,251.187 251.200,251.475 251.200 C 251.764 251.200,252.000 251.380,252.000 251.600 C 252.000 251.820,252.236 252.000,252.525 252.000 C 252.813 252.000,253.436 252.360,253.908 252.800 C 254.380 253.240,255.044 253.600,255.383 253.600 C 255.722 253.600,256.000 253.750,256.000 253.932 C 256.000 254.115,256.495 254.520,257.100 254.832 C 257.705 255.144,258.290 255.491,258.400 255.605 C 258.510 255.718,259.671 256.528,260.981 257.405 C 262.291 258.282,264.087 259.694,264.972 260.542 C 266.474 261.980,266.702 262.067,268.347 261.842 C 269.318 261.709,274.137 261.600,279.056 261.600 L 288.000 261.600 288.029 260.100 C 288.117 255.620,290.873 254.891,295.885 258.021 C 297.106 258.784,298.551 258.194,300.841 255.998 C 303.280 253.659,302.921 253.779,304.130 254.900 C 306.171 256.792,307.483 260.330,306.393 261.004 C 305.853 261.338,306.291 262.000,307.052 262.000 C 307.840 262.000,308.800 261.027,308.800 260.229 C 308.800 259.883,308.980 259.600,309.200 259.600 C 309.431 259.600,309.600 258.333,309.600 256.600 C 309.600 254.867,309.431 253.600,309.200 253.600 C 308.980 253.600,308.800 253.244,308.800 252.809 C 308.800 252.373,307.810 251.027,306.600 249.817 C 304.573 247.790,304.400 247.473,304.400 245.782 C 304.400 240.615,298.045 237.254,295.036 240.831 C 294.466 241.508,294.000 242.210,294.000 242.391 C 294.000 242.572,293.370 243.350,292.600 244.120 C 291.830 244.890,291.200 245.652,291.200 245.813 C 291.200 245.974,290.876 246.397,290.481 246.753 C 290.086 247.109,289.322 248.030,288.785 248.800 C 284.964 254.275,281.600 256.068,281.600 252.629 C 281.600 251.843,281.420 251.200,281.200 251.200 C 280.960 251.200,280.800 249.600,280.800 247.200 L 280.800 243.200 282.000 243.200 C 282.660 243.200,283.200 243.020,283.200 242.800 C 283.200 242.580,283.920 242.400,284.800 242.400 C 285.680 242.400,286.400 242.220,286.400 242.000 C 286.400 241.780,286.649 241.600,286.954 241.600 C 287.653 241.600,288.800 239.883,288.800 238.838 C 288.800 238.403,288.997 237.925,289.238 237.777 C 289.478 237.628,289.593 237.077,289.493 236.553 C 289.343 235.767,289.476 235.600,290.255 235.600 C 290.775 235.600,291.200 235.780,291.200 236.000 C 291.200 236.220,291.515 236.402,291.900 236.404 C 292.285 236.406,293.025 236.946,293.545 237.604 C 294.602 238.942,295.600 239.173,295.600 238.080 C 295.600 237.684,295.816 237.144,296.080 236.880 C 296.453 236.507,296.453 236.293,296.080 235.920 C 295.816 235.656,295.600 235.002,295.600 234.467 C 295.600 233.474,293.836 231.601,292.900 231.600 C 292.625 231.600,292.400 231.420,292.400 231.200 C 292.400 230.980,292.051 230.800,291.624 230.800 C 291.197 230.800,290.736 230.620,290.600 230.400 C 290.464 230.180,289.643 230.000,288.776 230.000 C 287.909 230.000,287.200 229.820,287.200 229.600 C 287.200 229.380,286.671 229.200,286.024 229.200 C 285.377 229.200,284.736 229.020,284.600 228.800 C 283.392 226.846,276.446 229.137,276.413 231.500 C 276.406 231.995,276.220 232.400,276.000 232.400 C 275.763 232.400,275.600 233.867,275.600 236.000 C 275.600 238.133,275.437 239.600,275.200 239.600 C 274.947 239.600,274.800 242.467,274.800 247.400 C 274.800 252.333,274.653 255.200,274.400 255.200 C 274.180 255.200,274.000 255.560,274.000 256.000 C 274.000 256.567,273.738 256.796,273.100 256.787 C 271.953 256.771,270.800 255.903,270.800 255.056 C 270.800 254.695,270.652 254.400,270.471 254.400 C 270.110 254.400,268.400 250.827,268.400 250.072 C 268.400 249.812,268.220 249.600,268.000 249.600 C 267.780 249.600,267.600 249.161,267.600 248.624 C 267.600 248.087,267.420 247.536,267.200 247.400 C 266.980 247.264,266.800 246.713,266.800 246.176 C 266.800 245.639,266.620 245.200,266.400 245.200 C 266.180 245.200,266.000 244.660,266.000 244.000 C 266.000 243.340,265.820 242.800,265.600 242.800 C 265.380 242.800,265.200 242.438,265.200 241.995 C 265.200 241.552,264.992 240.787,264.738 240.295 C 263.742 238.369,263.600 237.983,263.600 237.205 C 263.600 236.762,263.420 236.400,263.200 236.400 C 262.980 236.400,262.800 235.860,262.800 235.200 C 262.800 234.540,262.620 234.000,262.400 234.000 C 262.180 234.000,262.000 233.651,262.000 233.224 C 262.000 232.797,261.820 232.336,261.600 232.200 C 261.380 232.064,261.200 231.513,261.200 230.976 C 261.200 230.439,261.020 230.000,260.800 230.000 C 260.580 230.000,260.400 229.640,260.400 229.200 C 260.400 228.760,260.220 228.400,260.000 228.400 C 259.780 228.400,259.594 228.085,259.587 227.700 C 259.580 227.315,259.310 226.651,258.987 226.224 C 258.664 225.796,258.400 225.121,258.400 224.724 C 258.400 224.326,258.220 224.000,258.000 224.000 C 257.780 224.000,257.600 223.640,257.600 223.200 C 257.600 222.760,257.441 222.400,257.247 222.400 C 257.052 222.400,256.793 222.085,256.671 221.700 C 256.341 220.658,255.096 218.691,254.300 217.954 C 253.915 217.598,253.600 217.145,253.600 216.949 C 253.600 216.211,247.829 210.000,247.143 210.000 C 246.530 210.000,242.400 205.654,242.400 205.009 C 242.400 204.674,242.250 204.400,242.067 204.400 C 241.316 204.400,240.658 200.411,240.683 196.000 C 240.710 191.207,241.505 184.800,242.072 184.800 C 242.252 184.800,242.400 184.361,242.400 183.824 C 242.400 183.287,242.580 182.736,242.800 182.600 C 243.020 182.464,243.200 182.003,243.200 181.576 C 243.200 181.149,243.380 180.800,243.600 180.800 C 243.820 180.800,244.000 180.440,244.000 180.000 C 244.000 179.560,244.180 179.200,244.400 179.200 C 244.620 179.200,244.800 179.560,244.800 180.000 C 244.800 180.440,244.980 180.800,245.200 180.800 C 245.420 180.800,245.600 181.192,245.600 181.672 C 245.600 182.592,246.260 184.928,246.849 186.095 C 247.042 186.477,247.200 187.056,247.200 187.382 C 247.200 187.709,247.560 188.617,248.000 189.400 C 248.440 190.183,248.800 191.179,248.800 191.612 C 248.800 192.045,248.980 192.400,249.200 192.400 C 249.420 192.400,249.600 192.760,249.600 193.200 C 249.600 193.640,249.780 194.000,250.000 194.000 C 250.220 194.000,250.400 194.360,250.400 194.800 C 250.400 195.240,250.580 195.600,250.800 195.600 C 251.020 195.600,251.200 195.960,251.200 196.400 C 251.200 196.840,251.380 197.200,251.600 197.200 C 251.820 197.200,252.000 197.560,252.000 198.000 C 252.000 198.440,252.180 198.800,252.400 198.800 C 252.620 198.800,252.800 199.036,252.800 199.325 C 252.800 199.613,253.160 200.236,253.600 200.708 C 254.040 201.180,254.400 201.804,254.400 202.095 C 254.400 202.386,254.760 202.883,255.200 203.200 C 255.640 203.517,256.000 204.057,256.000 204.400 C 256.000 204.743,256.360 205.283,256.800 205.600 C 257.240 205.917,257.600 206.407,257.600 206.688 C 257.600 206.970,257.780 207.200,258.000 207.200 C 258.220 207.200,258.400 207.458,258.400 207.773 C 258.400 208.088,258.715 208.446,259.100 208.568 C 259.485 208.691,260.025 209.299,260.300 209.920 C 260.877 211.222,266.196 216.800,266.861 216.800 C 267.106 216.800,267.597 217.116,267.953 217.503 C 268.309 217.889,269.095 218.460,269.700 218.770 C 270.305 219.081,270.800 219.485,270.800 219.668 C 270.800 219.850,271.160 220.000,271.600 220.000 C 272.040 220.000,272.400 220.180,272.400 220.400 C 272.400 220.620,272.839 220.800,273.376 220.800 C 273.913 220.800,274.464 220.980,274.600 221.200 C 275.029 221.894,280.000 221.705,280.000 220.995 C 280.000 220.223,279.201 218.796,278.300 217.957 C 277.915 217.599,277.600 217.012,277.600 216.653 C 277.600 216.294,277.420 216.000,277.200 216.000 C 276.980 216.000,276.800 215.764,276.800 215.475 C 276.800 215.187,276.469 214.596,276.065 214.162 C 275.661 213.728,275.199 212.850,275.039 212.211 C 274.878 211.572,274.399 210.560,273.973 209.963 C 273.548 209.365,273.200 208.589,273.200 208.238 C 273.200 207.887,273.020 207.600,272.800 207.600 C 272.580 207.600,272.400 207.240,272.400 206.800 C 272.400 206.360,272.220 206.000,272.000 206.000 C 271.780 206.000,271.600 205.460,271.600 204.800 C 271.600 204.140,271.420 203.600,271.200 203.600 C 270.980 203.600,270.800 203.161,270.800 202.624 C 270.800 202.087,270.620 201.536,270.400 201.400 C 270.180 201.264,270.000 200.724,270.000 200.200 C 270.000 199.676,269.820 199.136,269.600 199.000 C 269.380 198.864,269.200 198.133,269.200 197.376 C 269.200 196.619,269.020 196.000,268.800 196.000 C 268.580 196.000,268.400 195.100,268.400 194.000 C 268.400 192.900,268.220 192.000,268.000 192.000 C 267.778 192.000,267.600 190.933,267.600 189.600 C 267.600 188.267,267.778 187.200,268.000 187.200 C 268.220 187.200,268.400 187.560,268.400 188.000 C 268.400 188.440,268.536 188.800,268.702 188.800 C 268.869 188.800,269.260 189.385,269.572 190.100 C 269.884 190.815,270.468 191.691,270.870 192.047 C 271.271 192.403,271.600 192.988,271.600 193.347 C 271.600 193.706,271.780 194.000,272.000 194.000 C 272.220 194.000,272.400 194.236,272.400 194.525 C 272.400 194.813,272.760 195.436,273.200 195.908 C 273.640 196.380,274.000 196.962,274.000 197.200 C 274.000 197.438,274.360 198.020,274.800 198.492 C 275.240 198.964,275.600 199.587,275.600 199.875 C 275.600 200.164,275.780 200.400,276.000 200.400 C 276.220 200.400,276.400 200.589,276.400 200.819 C 276.400 201.362,279.196 205.759,279.652 205.933 C 279.843 206.007,280.000 206.242,280.000 206.457 C 280.000 206.894,282.222 209.850,283.300 210.847 C 283.685 211.203,284.000 211.712,284.000 211.978 C 284.000 212.245,284.720 213.154,285.600 214.000 C 286.480 214.846,287.200 215.743,287.200 215.995 C 287.200 216.246,288.100 217.329,289.200 218.400 C 290.300 219.471,291.200 220.540,291.200 220.774 C 291.200 221.008,291.380 221.200,291.600 221.200 C 291.820 221.200,292.000 221.401,292.000 221.646 C 292.000 222.196,302.307 232.400,302.863 232.400 C 303.083 232.400,303.954 233.120,304.800 234.000 C 305.646 234.880,306.555 235.600,306.822 235.600 C 307.088 235.600,307.597 235.928,307.953 236.328 C 309.462 238.027,315.567 241.600,316.960 241.600 C 317.312 241.600,317.600 241.780,317.600 242.000 C 317.600 242.220,317.960 242.400,318.400 242.400 C 318.966 242.400,319.200 242.133,319.200 241.488 C 319.200 240.987,318.840 240.317,318.400 240.000 C 317.960 239.683,317.600 239.143,317.600 238.800 C 317.600 238.457,317.240 237.917,316.800 237.600 C 316.360 237.283,316.000 236.743,316.000 236.400 C 316.000 236.057,315.640 235.517,315.200 235.200 C 314.760 234.883,314.400 234.303,314.400 233.912 C 314.400 233.520,314.220 233.200,314.000 233.200 C 313.780 233.200,313.600 232.964,313.600 232.675 C 313.600 232.387,313.240 231.764,312.800 231.292 C 312.360 230.820,312.000 230.156,312.000 229.817 C 312.000 229.478,311.820 229.200,311.600 229.200 C 311.380 229.200,311.200 228.840,311.200 228.400 C 311.200 227.960,311.020 227.600,310.800 227.600 C 310.580 227.600,310.400 227.330,310.400 227.000 C 310.400 226.670,310.220 226.400,310.000 226.400 C 309.780 226.400,309.600 226.040,309.600 225.600 C 309.600 225.160,309.420 224.800,309.200 224.800 C 308.980 224.800,308.800 224.498,308.800 224.130 C 308.800 223.761,308.151 222.096,307.358 220.430 C 306.564 218.763,305.733 216.950,305.511 216.400 C 305.289 215.850,304.948 215.087,304.753 214.705 C 304.559 214.323,304.400 213.738,304.400 213.405 C 304.400 213.072,304.220 212.800,304.000 212.800 C 303.780 212.800,303.600 212.361,303.600 211.824 C 303.600 211.287,303.420 210.736,303.200 210.600 C 302.980 210.464,302.800 209.913,302.800 209.376 C 302.800 208.839,302.620 208.400,302.400 208.400 C 302.180 208.400,302.000 207.860,302.000 207.200 C 302.000 206.540,301.820 206.000,301.600 206.000 C 301.380 206.000,301.200 205.460,301.200 204.800 C 301.200 204.140,301.020 203.600,300.800 203.600 C 300.580 203.600,300.400 202.790,300.400 201.800 C 300.400 200.810,300.220 200.000,300.000 200.000 C 299.780 200.000,299.600 199.010,299.600 197.800 C 299.600 196.590,299.703 195.600,299.829 195.600 C 300.238 195.600,301.200 196.731,301.200 197.211 C 301.200 197.468,301.740 198.183,302.400 198.800 C 303.060 199.417,303.600 200.097,303.600 200.312 C 303.600 200.527,304.320 201.445,305.200 202.352 C 306.080 203.259,306.800 204.159,306.800 204.352 C 306.800 204.545,307.520 205.445,308.400 206.352 C 309.280 207.259,310.000 208.175,310.000 208.387 C 310.000 208.600,310.588 209.364,311.307 210.087 C 312.025 210.809,313.054 212.030,313.594 212.800 C 314.133 213.570,315.255 214.861,316.087 215.669 C 316.919 216.476,317.600 217.299,317.600 217.497 C 317.600 217.695,319.085 219.407,320.900 221.302 C 322.715 223.197,325.280 225.951,326.600 227.421 C 329.383 230.522,333.141 234.204,334.474 235.136 C 334.984 235.492,336.170 236.552,337.111 237.491 C 338.051 238.431,338.968 239.200,339.148 239.200 C 339.328 239.200,339.999 239.655,340.638 240.210 C 341.277 240.766,342.205 241.326,342.700 241.454 C 343.195 241.582,343.600 241.847,343.600 242.043 C 343.600 242.240,343.870 242.400,344.200 242.400 C 344.530 242.400,344.800 242.580,344.800 242.800 C 344.800 243.020,345.160 243.200,345.600 243.200 C 346.040 243.200,346.400 243.380,346.400 243.600 C 346.400 243.820,346.760 244.000,347.200 244.000 C 347.640 244.000,348.000 244.180,348.000 244.400 C 348.000 244.633,349.333 244.800,351.200 244.800 C 353.198 244.800,354.400 244.640,354.400 244.374 C 354.400 243.634,353.508 242.239,352.333 241.140 C 351.710 240.556,351.200 239.908,351.200 239.699 C 351.200 239.490,350.660 238.754,350.000 238.063 C 349.340 237.372,348.800 236.652,348.800 236.463 C 348.800 236.274,348.260 235.554,347.600 234.863 C 346.940 234.172,346.400 233.375,346.400 233.092 C 346.400 232.809,346.040 232.317,345.600 232.000 C 345.160 231.683,344.800 231.227,344.800 230.987 C 344.800 230.747,344.485 230.193,344.100 229.755 C 343.374 228.930,342.940 228.237,341.245 225.200 C 340.693 224.210,340.097 223.340,339.920 223.267 C 339.744 223.193,339.600 222.803,339.600 222.400 C 339.600 221.997,339.465 221.607,339.300 221.533 C 338.924 221.366,337.625 219.236,337.329 218.300 C 337.207 217.915,336.948 217.600,336.753 217.600 C 336.559 217.600,336.400 217.240,336.400 216.800 C 336.400 216.360,336.220 216.000,336.000 216.000 C 335.780 216.000,335.600 215.640,335.600 215.200 C 335.600 214.760,335.420 214.400,335.200 214.400 C 334.980 214.400,334.800 214.040,334.800 213.600 C 334.800 213.160,334.620 212.800,334.400 212.800 C 334.180 212.800,334.000 212.440,334.000 212.000 C 334.000 211.560,333.840 211.200,333.644 211.200 C 333.448 211.200,333.049 210.390,332.757 209.400 C 332.465 208.410,332.085 207.600,331.913 207.600 C 331.741 207.600,331.600 207.240,331.600 206.800 C 331.600 206.360,331.420 206.000,331.200 206.000 C 330.980 206.000,330.800 205.561,330.800 205.024 C 330.800 204.487,330.620 203.936,330.400 203.800 C 330.180 203.664,330.000 203.218,330.000 202.810 C 330.000 202.401,329.775 201.986,329.500 201.888 C 329.225 201.790,329.122 201.578,329.271 201.417 C 329.420 201.256,330.523 202.087,331.722 203.262 C 334.601 206.086,336.359 207.633,338.028 208.813 C 338.782 209.346,340.606 211.002,342.081 212.491 C 343.555 213.981,344.874 215.200,345.012 215.200 C 345.150 215.200,345.924 215.881,346.731 216.713 C 347.539 217.545,348.830 218.661,349.600 219.194 C 350.370 219.726,351.270 220.449,351.600 220.800 C 351.930 221.151,352.830 221.874,353.600 222.408 C 354.370 222.941,355.448 223.787,355.996 224.289 C 356.544 224.790,357.236 225.200,357.535 225.200 C 357.834 225.200,358.583 225.740,359.200 226.400 C 359.817 227.060,360.519 227.600,360.760 227.600 C 361.002 227.600,361.200 227.750,361.200 227.932 C 361.200 228.115,361.695 228.519,362.300 228.830 C 362.905 229.140,363.670 229.667,364.000 230.000 C 364.330 230.333,365.095 230.860,365.700 231.170 C 366.305 231.481,366.800 231.885,366.800 232.068 C 366.800 232.250,367.120 232.400,367.512 232.400 C 367.903 232.400,368.483 232.760,368.800 233.200 C 369.117 233.640,369.614 234.000,369.905 234.000 C 370.196 234.000,370.820 234.360,371.292 234.800 C 371.764 235.240,372.387 235.600,372.675 235.600 C 372.964 235.600,373.200 235.780,373.200 236.000 C 373.200 236.220,373.560 236.400,374.000 236.400 C 374.440 236.400,374.801 236.535,374.803 236.700 C 374.805 236.865,375.210 237.201,375.703 237.446 C 376.196 237.691,378.009 238.630,379.732 239.533 C 381.454 240.437,383.479 241.291,384.232 241.432 C 384.984 241.574,385.600 241.849,385.600 242.045 C 385.600 242.240,386.050 242.400,386.600 242.400 C 387.150 242.400,387.600 242.580,387.600 242.800 C 387.600 243.020,388.039 243.200,388.576 243.200 C 389.113 243.200,389.664 243.380,389.800 243.600 C 389.936 243.820,390.667 244.000,391.424 244.000 C 392.181 244.000,392.800 244.180,392.800 244.400 C 392.800 244.620,393.430 244.800,394.200 244.800 C 394.970 244.800,395.600 244.599,395.600 244.354 C 395.600 243.756,392.781 241.200,392.122 241.200 C 391.835 241.200,391.600 241.012,391.600 240.781 C 391.600 240.551,390.476 239.336,389.102 238.081 C 386.700 235.887,375.441 224.599,374.582 223.523 C 374.352 223.235,373.722 222.373,373.182 221.607 C 372.642 220.840,371.743 219.760,371.185 219.207 C 370.626 218.653,369.735 217.570,369.204 216.800 C 368.672 216.030,367.914 215.109,367.519 214.753 C 367.124 214.397,366.800 213.994,366.800 213.858 C 366.800 213.613,365.884 212.420,364.900 211.384 C 364.625 211.094,364.400 210.737,364.400 210.589 C 364.400 210.442,363.860 209.817,363.200 209.200 C 362.540 208.583,362.000 207.831,362.000 207.528 C 362.000 207.225,361.640 206.717,361.200 206.400 C 360.760 206.083,360.400 205.543,360.400 205.200 C 360.400 204.857,360.040 204.317,359.600 204.000 C 359.160 203.683,358.800 203.236,358.800 203.007 C 358.800 202.779,357.990 201.384,357.000 199.908 C 356.010 198.433,355.200 197.039,355.200 196.813 C 355.200 196.586,355.020 196.400,354.800 196.400 C 354.580 196.400,354.400 196.130,354.400 195.800 C 354.400 195.470,354.220 195.200,354.000 195.200 C 353.780 195.200,353.600 194.930,353.600 194.600 C 353.600 194.270,353.420 194.000,353.200 194.000 C 352.980 194.000,352.800 193.730,352.800 193.400 C 352.800 193.070,352.620 192.800,352.400 192.800 C 352.180 192.800,352.000 192.522,352.000 192.183 C 352.000 191.844,351.640 191.180,351.200 190.708 C 350.760 190.236,350.400 189.613,350.400 189.325 C 350.400 189.036,350.220 188.800,350.000 188.800 C 349.780 188.800,349.600 188.440,349.600 188.000 C 349.600 187.560,349.420 187.200,349.200 187.200 C 348.980 187.200,348.800 186.840,348.800 186.400 C 348.800 185.960,348.664 185.600,348.498 185.600 C 348.331 185.600,347.941 185.015,347.630 184.300 C 347.319 183.585,346.955 182.910,346.822 182.800 C 346.398 182.449,343.193 175.820,343.197 175.300 C 343.199 175.025,343.020 174.800,342.800 174.800 C 342.580 174.800,342.400 174.440,342.400 174.000 C 342.400 173.560,342.220 173.200,342.000 173.200 C 341.780 173.200,341.600 173.020,341.600 172.800 C 341.600 172.113,342.396 172.360,343.391 173.354 C 343.916 173.879,344.897 174.553,345.572 174.852 C 346.248 175.151,346.800 175.531,346.800 175.698 C 346.800 175.864,347.070 176.000,347.400 176.000 C 347.730 176.000,348.000 176.180,348.000 176.400 C 348.000 176.620,348.270 176.800,348.600 176.800 C 348.930 176.800,349.200 176.980,349.200 177.200 C 349.200 177.420,349.470 177.600,349.800 177.600 C 350.130 177.600,350.400 177.780,350.400 178.000 C 350.400 178.220,350.720 178.400,351.112 178.400 C 351.503 178.400,352.083 178.760,352.400 179.200 C 352.717 179.640,353.297 180.000,353.688 180.000 C 354.080 180.000,354.400 180.180,354.400 180.400 C 354.400 180.620,354.678 180.800,355.017 180.800 C 355.356 180.800,356.020 181.160,356.492 181.600 C 356.964 182.040,357.587 182.400,357.875 182.400 C 358.164 182.400,358.400 182.580,358.400 182.800 C 358.400 183.020,358.760 183.200,359.200 183.200 C 359.640 183.200,360.000 183.346,360.000 183.525 C 360.000 183.704,360.630 184.098,361.400 184.400 C 362.170 184.702,362.800 185.096,362.800 185.275 C 362.800 185.454,363.053 185.600,363.362 185.600 C 363.847 185.600,365.120 186.152,368.095 187.650 C 368.477 187.843,369.062 188.000,369.395 188.000 C 369.728 188.000,370.000 188.180,370.000 188.400 C 370.000 188.620,370.349 188.800,370.776 188.800 C 371.203 188.800,371.664 188.980,371.800 189.200 C 371.936 189.420,372.476 189.600,373.000 189.600 C 373.524 189.600,374.064 189.780,374.200 190.000 C 374.336 190.220,374.887 190.400,375.424 190.400 C 375.961 190.400,376.400 190.566,376.400 190.768 C 376.400 190.971,377.570 191.262,379.000 191.415 C 380.430 191.568,381.600 191.852,381.600 192.047 C 381.600 192.241,382.309 192.400,383.176 192.400 C 384.043 192.400,384.864 192.580,385.000 192.800 C 385.340 193.350,390.800 193.323,390.800 192.771 C 390.800 192.322,389.821 191.200,389.429 191.200 C 389.304 191.200,388.459 190.480,387.552 189.600 C 386.645 188.720,385.755 188.000,385.573 188.000 C 384.828 188.000,359.600 162.924,359.600 162.184 C 359.600 161.930,358.102 160.203,355.900 157.918 C 354.855 156.834,354.000 155.793,354.000 155.606 C 354.000 155.419,353.325 154.576,352.500 153.733 L 351.000 152.200 198.076 152.200 L 45.152 152.200 44.376 153.026 " stroke="none" fill="#fc0404" fill-rule="evenodd"></path><path id="path1" d="M198.428 261.502 C 149.512 261.612,152.000 261.500,152.000 263.600 C 152.000 263.838,151.640 264.420,151.200 264.892 C 150.760 265.364,150.400 265.987,150.400 266.275 C 150.400 266.564,150.220 266.800,150.000 266.800 C 149.780 266.800,149.600 267.078,149.600 267.417 C 149.600 267.756,149.240 268.420,148.800 268.892 C 148.360 269.364,148.000 269.987,148.000 270.275 C 148.000 270.564,147.820 270.800,147.600 270.800 C 147.380 270.800,147.200 271.160,147.200 271.600 C 147.200 272.040,147.065 272.403,146.900 272.406 C 146.735 272.410,146.160 273.310,145.621 274.406 C 145.083 275.503,144.510 276.400,144.348 276.400 C 144.186 276.400,143.928 276.805,143.773 277.300 C 143.619 277.795,143.381 278.290,143.246 278.400 C 142.859 278.714,141.574 280.926,141.329 281.700 C 141.207 282.085,140.948 282.400,140.753 282.400 C 140.559 282.400,140.400 282.670,140.400 283.000 C 140.400 283.330,140.220 283.600,140.000 283.600 C 139.780 283.600,139.600 283.870,139.600 284.200 C 139.600 284.530,139.420 284.800,139.200 284.800 C 138.980 284.800,138.800 285.160,138.800 285.600 C 138.800 286.040,138.620 286.400,138.400 286.400 C 138.180 286.400,138.000 286.636,138.000 286.925 C 138.000 287.213,137.640 287.836,137.200 288.308 C 136.760 288.780,136.400 289.444,136.400 289.783 C 136.400 290.122,136.242 290.400,136.049 290.400 C 135.855 290.400,135.473 290.940,135.200 291.600 C 134.927 292.260,134.545 292.800,134.351 292.800 C 134.158 292.800,134.000 292.984,134.000 293.208 C 134.000 293.432,133.511 294.377,132.912 295.308 C 132.314 296.239,131.445 297.720,130.980 298.600 C 130.515 299.480,129.555 301.169,128.847 302.352 C 128.139 303.536,127.456 305.021,127.330 305.652 C 127.203 306.284,126.942 306.800,126.750 306.800 C 126.558 306.800,126.400 307.160,126.400 307.600 C 126.400 308.040,126.220 308.400,126.000 308.400 C 125.780 308.400,125.600 308.760,125.600 309.200 C 125.600 309.640,125.420 310.000,125.200 310.000 C 124.980 310.000,124.800 310.270,124.800 310.600 C 124.800 310.930,124.620 311.200,124.400 311.200 C 124.180 311.200,124.000 311.560,124.000 312.000 C 124.000 312.440,123.820 312.800,123.600 312.800 C 123.380 312.800,123.200 313.250,123.200 313.800 C 123.200 314.350,123.020 314.800,122.800 314.800 C 122.580 314.800,122.400 315.250,122.400 315.800 C 122.400 316.350,122.220 316.800,122.000 316.800 C 121.780 316.800,121.600 317.340,121.600 318.000 C 121.600 318.660,121.420 319.200,121.200 319.200 C 120.980 319.200,120.800 319.740,120.800 320.400 C 120.800 321.712,121.953 322.082,122.980 321.100 C 123.267 320.825,124.075 320.150,124.774 319.600 C 125.473 319.050,126.840 317.835,127.812 316.900 C 128.784 315.965,129.775 315.200,130.015 315.200 C 130.256 315.200,131.295 314.340,132.326 313.289 C 133.357 312.238,134.760 310.983,135.445 310.501 C 136.129 310.019,137.299 309.055,138.045 308.358 C 138.790 307.662,140.566 306.081,141.992 304.846 C 143.417 303.611,145.612 301.565,146.870 300.300 C 148.127 299.035,149.329 298.000,149.541 298.000 C 149.753 298.000,151.447 296.515,153.305 294.700 C 155.163 292.885,157.348 290.860,158.160 290.200 C 158.971 289.540,160.251 288.415,161.004 287.700 C 161.757 286.985,162.485 286.400,162.621 286.400 C 163.321 286.400,161.830 296.683,160.546 300.714 C 160.246 301.657,160.000 303.052,160.000 303.814 C 160.000 304.576,159.820 305.200,159.600 305.200 C 159.380 305.200,159.200 305.740,159.200 306.400 C 159.200 307.060,159.020 307.600,158.800 307.600 C 158.580 307.600,158.400 308.140,158.400 308.800 C 158.400 309.460,158.220 310.000,158.000 310.000 C 157.780 310.000,157.600 310.540,157.600 311.200 C 157.600 311.860,157.420 312.400,157.200 312.400 C 156.980 312.400,156.800 312.850,156.800 313.400 C 156.800 313.950,156.620 314.400,156.400 314.400 C 156.180 314.400,156.000 314.940,156.000 315.600 C 156.000 316.260,155.820 316.800,155.600 316.800 C 155.380 316.800,155.200 317.162,155.200 317.605 C 155.200 318.048,155.041 318.723,154.847 319.105 C 153.922 320.923,152.000 326.762,152.000 327.753 C 152.000 328.109,151.820 328.400,151.600 328.400 C 151.380 328.400,151.200 328.929,151.200 329.576 C 151.200 330.223,151.020 330.864,150.800 331.000 C 150.580 331.136,150.400 331.867,150.400 332.624 C 150.400 333.381,150.220 334.000,150.000 334.000 C 149.769 334.000,149.600 335.267,149.600 337.000 C 149.600 340.198,150.234 340.908,151.743 339.400 C 152.073 339.070,152.444 338.800,152.567 338.800 C 153.085 338.800,155.306 336.678,160.300 331.412 C 161.235 330.425,162.000 329.431,162.000 329.201 C 162.000 328.971,162.945 327.813,164.100 326.627 C 166.864 323.791,168.003 322.484,169.189 320.796 C 169.728 320.028,170.626 318.947,171.185 318.393 C 171.743 317.840,172.642 316.760,173.182 315.993 C 174.483 314.148,174.770 313.798,176.300 312.192 C 177.015 311.441,177.600 310.689,177.600 310.522 C 177.600 310.080,184.447 303.600,184.914 303.600 C 185.130 303.600,185.599 303.285,185.957 302.900 C 186.587 302.223,188.174 301.200,188.595 301.200 C 188.708 301.200,188.800 302.370,188.800 303.800 C 188.800 305.267,188.974 306.400,189.200 306.400 C 189.435 306.400,189.600 307.773,189.600 309.720 C 189.600 311.546,189.767 313.211,189.971 313.420 C 190.175 313.629,190.445 315.285,190.571 317.100 C 190.697 318.915,190.904 321.840,191.030 323.600 C 191.157 325.360,191.427 326.800,191.630 326.800 C 191.834 326.800,192.000 328.240,192.000 330.000 C 192.000 331.867,192.167 333.200,192.400 333.200 C 192.626 333.200,192.800 334.333,192.800 335.800 C 192.800 337.230,192.953 338.400,193.139 338.400 C 193.326 338.400,193.596 340.459,193.739 342.975 C 193.883 345.491,194.181 348.023,194.400 348.601 C 194.620 349.179,194.800 350.530,194.800 351.602 C 194.800 352.675,194.957 353.650,195.148 353.768 C 195.340 353.886,195.605 354.842,195.738 355.892 C 195.871 356.941,196.175 358.700,196.415 359.800 C 196.655 360.900,196.949 362.475,197.068 363.300 C 197.187 364.125,197.445 364.800,197.642 364.800 C 197.839 364.800,198.000 365.237,198.000 365.771 C 198.000 366.683,198.910 368.000,199.540 368.000 C 200.016 368.000,201.200 366.427,201.200 365.795 C 201.200 365.468,201.380 365.200,201.600 365.200 C 201.820 365.200,202.000 364.750,202.000 364.200 C 202.000 363.650,202.180 363.200,202.400 363.200 C 202.620 363.200,202.800 362.761,202.800 362.224 C 202.800 361.687,202.980 361.136,203.200 361.000 C 203.420 360.864,203.600 360.313,203.600 359.776 C 203.600 359.239,203.780 358.800,204.000 358.800 C 204.220 358.800,204.400 358.271,204.400 357.624 C 204.400 356.977,204.580 356.336,204.800 356.200 C 205.020 356.064,205.200 355.434,205.200 354.800 C 205.200 354.166,205.380 353.536,205.600 353.400 C 205.820 353.264,206.000 352.544,206.000 351.800 C 206.000 351.056,206.180 350.336,206.400 350.200 C 206.620 350.064,206.800 349.344,206.800 348.600 C 206.800 347.856,206.956 347.151,207.147 347.033 C 207.500 346.815,207.641 346.078,208.510 339.932 C 208.779 338.024,209.135 336.329,209.300 336.165 C 209.465 336.001,209.600 334.907,209.600 333.733 C 209.600 332.560,209.780 331.600,210.000 331.600 C 210.220 331.600,210.400 330.711,210.400 329.624 C 210.400 328.537,210.580 327.536,210.800 327.400 C 211.020 327.264,211.200 325.993,211.200 324.576 C 211.200 323.125,211.375 322.000,211.600 322.000 C 211.826 322.000,212.000 320.867,212.000 319.400 C 212.000 317.933,212.174 316.800,212.400 316.800 C 212.629 316.800,212.800 315.600,212.800 314.000 C 212.800 312.400,212.971 311.200,213.200 311.200 C 213.429 311.200,213.605 309.958,213.613 308.300 C 213.637 302.851,213.431 302.751,224.252 313.500 C 229.511 318.725,234.418 323.450,235.154 324.000 C 235.890 324.550,237.639 326.125,239.039 327.500 C 240.439 328.875,241.792 330.000,242.046 330.000 C 242.554 330.000,244.000 331.525,244.000 332.061 C 244.000 332.248,244.193 332.400,244.429 332.400 C 244.664 332.400,245.094 332.625,245.384 332.900 C 247.866 335.256,249.963 336.496,251.017 336.232 C 252.036 335.976,252.294 335.429,251.600 335.000 C 251.380 334.864,251.200 333.863,251.200 332.776 C 251.200 331.689,251.020 330.800,250.800 330.800 C 250.580 330.800,250.400 330.271,250.400 329.624 C 250.400 328.977,250.220 328.336,250.000 328.200 C 249.780 328.064,249.600 327.603,249.600 327.176 C 249.600 326.749,249.420 326.400,249.200 326.400 C 248.980 326.400,248.800 325.860,248.800 325.200 C 248.800 324.540,248.620 324.000,248.400 324.000 C 248.180 324.000,248.000 323.640,248.000 323.200 C 248.000 322.760,247.820 322.400,247.600 322.400 C 247.380 322.400,247.200 322.040,247.200 321.600 C 247.200 321.160,247.020 320.800,246.800 320.800 C 246.580 320.800,246.400 320.350,246.400 319.800 C 246.400 319.250,246.220 318.800,246.000 318.800 C 245.780 318.800,245.600 318.451,245.600 318.024 C 245.600 317.597,245.420 317.136,245.200 317.000 C 244.980 316.864,244.800 316.403,244.800 315.976 C 244.800 315.549,244.620 315.200,244.400 315.200 C 244.180 315.200,244.000 314.840,244.000 314.400 C 244.000 313.960,243.820 313.600,243.600 313.600 C 243.380 313.600,243.200 313.240,243.200 312.800 C 243.200 312.360,243.020 312.000,242.800 312.000 C 242.580 312.000,242.400 311.550,242.400 311.000 C 242.400 310.450,242.236 310.000,242.035 310.000 C 241.834 310.000,241.549 309.280,241.400 308.400 C 241.251 307.520,241.011 306.799,240.865 306.797 C 240.446 306.792,239.600 304.734,239.600 303.720 C 239.600 303.214,239.420 302.800,239.200 302.800 C 238.980 302.800,238.800 302.260,238.800 301.600 C 238.800 300.940,238.620 300.400,238.400 300.400 C 238.180 300.400,238.000 299.871,238.000 299.224 C 238.000 298.577,237.820 297.936,237.600 297.800 C 237.380 297.664,237.200 296.678,237.200 295.610 C 237.200 294.541,237.008 293.603,236.774 293.525 C 236.529 293.443,236.402 292.587,236.474 291.502 L 236.600 289.622 237.735 290.511 C 238.359 291.000,240.464 292.930,242.411 294.800 C 247.683 299.861,252.053 303.892,253.363 304.903 C 254.002 305.396,255.218 306.430,256.065 307.200 C 256.911 307.970,258.428 309.320,259.435 310.200 C 260.443 311.080,262.258 312.745,263.469 313.900 C 264.680 315.055,265.743 316.000,265.831 316.000 C 266.075 316.000,267.485 317.199,269.711 319.300 C 270.819 320.345,271.869 321.200,272.044 321.200 C 272.220 321.200,272.777 321.613,273.282 322.118 C 276.273 325.108,278.400 325.807,278.400 323.800 C 278.400 323.030,278.220 322.400,278.000 322.400 C 277.780 322.400,277.600 321.860,277.600 321.200 C 277.600 320.540,277.420 320.000,277.200 320.000 C 276.980 320.000,276.800 319.640,276.800 319.200 C 276.800 318.760,276.620 318.400,276.400 318.400 C 276.180 318.400,276.000 318.051,276.000 317.624 C 276.000 317.197,275.820 316.736,275.600 316.600 C 275.380 316.464,275.200 316.025,275.200 315.624 C 275.200 314.714,271.599 307.600,271.138 307.600 C 270.952 307.600,270.800 307.240,270.800 306.800 C 270.800 306.360,270.620 306.000,270.400 306.000 C 270.180 306.000,270.000 305.640,270.000 305.200 C 270.000 304.760,269.820 304.400,269.600 304.400 C 269.380 304.400,269.200 304.040,269.200 303.600 C 269.200 303.160,269.020 302.800,268.800 302.800 C 268.580 302.800,268.400 302.564,268.400 302.275 C 268.400 301.987,268.040 301.364,267.600 300.892 C 267.160 300.420,266.800 299.771,266.800 299.450 C 266.800 299.129,266.665 298.807,266.500 298.733 C 266.124 298.566,264.825 296.436,264.529 295.500 C 264.407 295.115,264.148 294.800,263.953 294.800 C 263.759 294.800,263.600 294.570,263.600 294.288 C 263.600 294.007,263.240 293.517,262.800 293.200 C 262.360 292.883,262.000 292.303,262.000 291.912 C 262.000 291.520,261.820 291.200,261.600 291.200 C 261.380 291.200,261.200 290.922,261.200 290.583 C 261.200 290.244,260.840 289.580,260.400 289.108 C 259.960 288.636,259.600 288.013,259.600 287.725 C 259.600 287.436,259.434 287.200,259.232 287.200 C 259.029 287.200,258.745 286.660,258.600 286.000 C 258.455 285.340,258.171 284.800,257.968 284.800 C 257.766 284.800,257.600 284.610,257.600 284.378 C 257.600 284.146,256.880 282.896,256.000 281.600 C 255.120 280.304,254.400 279.088,254.400 278.897 C 254.400 278.707,254.085 278.202,253.700 277.775 C 253.315 277.349,252.745 276.505,252.432 275.900 C 252.120 275.295,251.715 274.800,251.532 274.800 C 251.350 274.800,251.200 274.440,251.200 274.000 C 251.200 273.560,251.020 273.200,250.800 273.200 C 250.580 273.200,250.400 272.964,250.400 272.675 C 250.400 272.387,250.040 271.764,249.600 271.292 C 249.160 270.820,248.800 270.156,248.800 269.817 C 248.800 269.478,248.654 269.200,248.475 269.200 C 248.296 269.200,247.902 268.570,247.600 267.800 C 247.298 267.030,246.904 266.400,246.725 266.400 C 246.546 266.400,246.400 266.130,246.400 265.800 C 246.400 265.470,246.220 265.200,246.000 265.200 C 245.780 265.200,245.600 264.840,245.600 264.400 C 245.600 263.960,245.420 263.600,245.200 263.600 C 244.980 263.600,244.800 263.412,244.800 263.183 C 244.800 261.328,246.587 261.393,198.428 261.502 M277.733 261.565 C 268.052 261.782,265.287 262.079,267.517 262.663 C 268.003 262.789,268.400 263.160,268.400 263.486 C 268.400 263.812,268.940 264.583,269.600 265.200 C 270.260 265.817,270.800 266.569,270.800 266.872 C 270.800 267.175,271.160 267.683,271.600 268.000 C 272.040 268.317,272.400 268.987,272.400 269.488 C 272.400 269.990,272.580 270.400,272.800 270.400 C 273.020 270.400,273.200 270.839,273.200 271.376 C 273.200 271.913,273.380 272.464,273.600 272.600 C 273.820 272.736,274.000 273.737,274.000 274.824 C 274.000 276.000,274.179 276.800,274.442 276.800 C 274.737 276.800,274.796 277.366,274.620 278.500 C 274.475 279.435,274.260 281.325,274.144 282.700 C 274.027 284.075,273.767 285.200,273.566 285.200 C 273.365 285.200,273.200 285.830,273.200 286.600 C 273.200 287.370,273.020 288.000,272.800 288.000 C 270.959 288.000,273.467 293.123,275.648 293.815 C 276.061 293.946,276.400 294.222,276.400 294.427 C 276.400 294.632,276.839 294.800,277.376 294.800 C 277.913 294.800,278.464 294.980,278.600 295.200 C 278.736 295.420,279.574 295.600,280.463 295.600 C 281.733 295.600,282.313 295.850,283.170 296.768 C 285.461 299.221,291.989 300.836,293.000 299.200 C 293.136 298.980,293.597 298.800,294.024 298.800 C 294.533 298.800,294.800 298.525,294.800 298.000 C 294.800 297.418,294.533 297.200,293.824 297.200 C 293.287 297.200,292.736 297.020,292.600 296.800 C 292.464 296.580,292.091 296.400,291.772 296.400 C 289.819 296.400,286.608 293.181,287.562 292.180 C 290.278 289.332,290.112 287.309,286.900 284.082 C 281.754 278.913,281.841 277.401,287.643 271.128 C 288.217 270.508,288.892 270.000,289.143 270.000 C 289.394 270.000,289.600 269.820,289.600 269.600 C 289.600 269.380,290.238 269.200,291.017 269.200 C 293.173 269.200,295.600 271.962,295.600 274.414 C 295.600 275.692,295.984 276.232,297.510 277.100 C 298.555 277.694,302.800 277.774,302.800 277.200 C 302.800 276.980,303.160 276.800,303.600 276.800 C 304.488 276.800,304.860 283.669,304.000 284.200 C 302.998 284.819,303.572 286.400,304.800 286.400 C 305.460 286.400,306.000 286.263,306.000 286.095 C 306.000 285.927,306.390 285.612,306.867 285.395 C 307.754 284.991,307.889 284.801,308.975 282.439 C 310.316 279.517,309.659 272.839,307.904 271.573 C 307.732 271.449,307.791 270.772,308.036 270.069 C 308.868 267.682,307.967 263.210,306.531 262.598 C 303.846 261.453,295.726 261.162,277.733 261.565 M91.200 263.920 C 91.200 265.196,91.412 266.452,91.671 266.711 C 92.033 267.073,91.940 267.358,91.271 267.938 C 90.792 268.354,90.400 268.988,90.400 269.347 C 90.400 269.706,90.220 270.000,90.000 270.000 C 89.760 270.000,89.600 271.592,89.600 273.976 C 89.600 276.196,89.777 278.062,90.000 278.200 C 90.220 278.336,90.400 278.713,90.400 279.037 C 90.400 280.141,93.078 282.400,94.387 282.400 C 95.627 282.400,96.209 280.824,95.200 280.200 C 94.523 279.781,94.689 273.200,95.376 273.200 C 95.693 273.200,96.064 273.380,96.200 273.600 C 97.371 275.495,103.600 273.422,103.600 271.137 C 103.600 270.318,103.780 269.536,104.000 269.400 C 104.220 269.264,104.400 268.861,104.400 268.505 C 104.400 267.556,107.145 265.200,108.250 265.200 C 108.773 265.200,109.200 265.380,109.200 265.600 C 109.200 265.820,109.426 266.000,109.702 266.000 C 110.390 266.000,114.400 270.275,114.400 271.009 C 114.400 271.334,114.535 271.601,114.700 271.603 C 115.217 271.609,116.000 273.701,116.000 275.080 C 116.000 275.806,115.820 276.400,115.600 276.400 C 115.380 276.400,115.200 276.760,115.200 277.200 C 115.200 277.640,115.041 278.000,114.847 278.000 C 114.652 278.000,114.402 278.350,114.290 278.778 C 114.178 279.206,113.251 280.145,112.229 280.865 C 109.656 282.678,109.255 285.455,111.189 288.071 C 112.314 289.592,111.418 292.000,109.728 292.000 C 109.438 292.000,109.200 292.180,109.200 292.400 C 109.200 292.620,108.840 292.800,108.400 292.800 C 107.960 292.800,107.600 292.980,107.600 293.200 C 107.600 293.420,106.880 293.600,106.000 293.600 C 105.120 293.600,104.400 293.793,104.400 294.029 C 104.400 294.867,105.563 295.600,106.891 295.600 C 107.633 295.600,108.460 295.820,108.730 296.090 C 109.117 296.477,109.385 296.477,110.005 296.090 C 110.436 295.820,111.154 295.600,111.600 295.600 C 112.650 295.600,113.911 294.874,115.250 293.500 C 115.876 292.857,116.753 292.400,117.360 292.400 C 117.932 292.400,118.400 292.220,118.400 292.000 C 118.400 291.780,119.036 291.600,119.813 291.600 C 122.125 291.600,126.000 289.379,126.000 288.053 C 126.000 287.804,126.180 287.600,126.400 287.600 C 126.620 287.600,126.800 286.790,126.800 285.800 C 126.800 284.810,126.620 284.000,126.400 284.000 C 126.180 284.000,126.000 283.370,126.000 282.600 C 126.000 281.830,125.820 281.200,125.600 281.200 C 125.351 281.200,125.200 278.933,125.200 275.200 C 125.200 271.467,125.351 269.200,125.600 269.200 C 125.820 269.200,126.000 268.660,126.000 268.000 C 126.000 267.340,126.180 266.800,126.400 266.800 C 126.620 266.800,126.800 266.440,126.800 266.000 C 126.800 265.560,126.980 265.200,127.200 265.200 C 127.420 265.200,127.600 264.922,127.600 264.583 C 127.600 264.244,127.966 263.574,128.414 263.093 C 129.711 261.701,129.159 261.658,109.500 261.628 L 91.200 261.600 91.200 263.920 " stroke="none" fill="#fccc04" fill-rule="evenodd"></path><path id="path2" d="M105.800 45.290 C 105.140 45.512,104.287 45.853,103.905 46.047 C 103.523 46.241,102.938 46.400,102.605 46.400 C 102.272 46.400,102.000 46.580,102.000 46.800 C 102.000 47.020,101.640 47.200,101.200 47.200 C 100.760 47.200,100.400 47.380,100.400 47.600 C 100.400 47.820,100.175 48.003,99.900 48.007 C 98.737 48.024,88.000 58.324,88.000 59.422 C 88.000 59.740,87.828 60.000,87.618 60.000 C 87.134 60.000,85.583 61.546,84.127 63.479 C 83.507 64.302,82.325 65.678,81.500 66.536 C 80.675 67.394,80.000 68.254,80.000 68.447 C 80.000 68.640,79.370 69.466,78.600 70.282 C 77.830 71.099,77.200 72.017,77.200 72.323 C 77.200 72.629,76.660 73.383,76.000 74.000 C 75.340 74.617,74.798 75.364,74.796 75.660 C 74.794 75.957,74.254 76.625,73.596 77.145 C 72.938 77.665,72.400 78.268,72.400 78.485 C 72.400 78.702,71.860 79.383,71.200 80.000 C 70.540 80.617,70.000 81.319,70.000 81.560 C 70.000 81.802,69.820 82.000,69.600 82.000 C 69.380 82.000,69.200 82.182,69.200 82.404 C 69.200 82.626,68.660 83.372,68.000 84.063 C 67.340 84.754,66.800 85.474,66.800 85.663 C 66.800 85.852,66.260 86.572,65.600 87.263 C 64.940 87.954,64.400 88.680,64.400 88.878 C 64.400 89.075,63.950 89.686,63.400 90.236 C 62.850 90.786,62.400 91.389,62.400 91.576 C 62.400 91.763,61.860 92.493,61.200 93.200 C 60.540 93.907,60.000 94.696,60.000 94.954 C 60.000 95.212,59.640 95.683,59.200 96.000 C 58.760 96.317,58.400 96.807,58.400 97.088 C 58.400 97.370,58.220 97.600,58.000 97.600 C 57.780 97.600,57.600 97.782,57.600 98.004 C 57.600 98.226,57.060 98.972,56.400 99.663 C 55.740 100.354,55.200 101.090,55.200 101.299 C 55.200 101.508,54.660 102.183,54.000 102.800 C 53.340 103.417,52.800 104.119,52.800 104.360 C 52.800 104.602,52.080 105.541,51.200 106.448 C 50.320 107.355,49.600 108.258,49.600 108.455 C 49.600 108.653,49.015 109.405,48.300 110.127 C 47.585 110.849,46.431 112.150,45.735 113.020 C 45.039 113.889,44.094 114.997,43.635 115.483 C 43.176 115.969,42.800 116.555,42.800 116.786 C 42.800 117.332,26.087 134.000,25.539 134.000 C 25.309 134.000,24.617 134.540,24.000 135.200 C 23.383 135.860,22.631 136.400,22.328 136.400 C 22.025 136.400,21.517 136.760,21.200 137.200 C 20.883 137.640,20.343 138.000,20.000 138.000 C 19.657 138.000,19.117 138.360,18.800 138.800 C 18.483 139.240,17.890 139.600,17.482 139.600 C 16.992 139.600,16.787 139.837,16.875 140.300 C 17.031 141.115,25.200 141.620,25.200 140.814 C 25.200 140.586,25.920 140.400,26.800 140.400 C 27.680 140.400,28.400 140.220,28.400 140.000 C 28.400 139.780,28.942 139.600,29.605 139.600 C 30.268 139.600,31.168 139.420,31.605 139.200 C 32.042 138.980,32.758 138.620,33.195 138.400 C 33.632 138.180,34.352 138.000,34.795 138.000 C 35.238 138.000,35.600 137.820,35.600 137.600 C 35.600 137.380,35.960 137.200,36.400 137.200 C 36.840 137.200,37.200 137.020,37.200 136.800 C 37.200 136.580,37.549 136.400,37.976 136.400 C 38.403 136.400,38.864 136.220,39.000 136.000 C 39.136 135.780,39.582 135.600,39.990 135.600 C 40.399 135.600,40.793 135.465,40.867 135.300 C 40.940 135.135,41.855 134.567,42.900 134.037 C 43.945 133.508,44.800 132.923,44.800 132.737 C 44.800 132.552,45.160 132.400,45.600 132.400 C 46.040 132.400,46.400 132.220,46.400 132.000 C 46.400 131.780,46.720 131.600,47.112 131.600 C 47.503 131.600,48.083 131.240,48.400 130.800 C 48.717 130.360,49.297 130.000,49.688 130.000 C 50.080 130.000,50.400 129.820,50.400 129.600 C 50.400 129.380,50.636 129.200,50.925 129.200 C 51.213 129.200,51.836 128.840,52.308 128.400 C 52.780 127.960,53.354 127.600,53.583 127.600 C 53.812 127.600,54.000 127.420,54.000 127.200 C 54.000 126.980,54.270 126.800,54.600 126.800 C 54.930 126.800,55.200 126.650,55.200 126.468 C 55.200 126.285,55.695 125.884,56.300 125.578 C 57.469 124.985,59.258 123.695,60.638 122.451 C 61.098 122.035,61.908 121.464,62.438 121.181 C 62.967 120.898,63.850 120.191,64.400 119.609 C 65.981 117.936,66.800 117.792,66.800 119.189 C 66.800 119.829,66.620 120.464,66.400 120.600 C 66.180 120.736,66.000 121.197,66.000 121.624 C 66.000 122.051,65.820 122.400,65.600 122.400 C 65.380 122.400,65.200 122.636,65.200 122.925 C 65.200 123.490,63.656 126.870,63.247 127.200 C 63.110 127.310,62.731 127.940,62.403 128.600 C 62.076 129.260,61.221 130.736,60.504 131.881 C 59.787 133.025,59.200 134.110,59.200 134.292 C 59.200 134.474,58.840 134.883,58.400 135.200 C 57.960 135.517,57.600 136.057,57.600 136.400 C 57.600 136.743,57.240 137.283,56.800 137.600 C 56.360 137.917,56.000 138.425,56.000 138.728 C 56.000 139.031,55.460 139.783,54.800 140.400 C 54.140 141.017,53.600 141.722,53.600 141.968 C 53.600 142.213,53.015 143.015,52.300 143.750 C 50.451 145.650,49.139 147.197,48.014 148.804 C 47.477 149.572,46.686 150.516,46.255 150.903 C 45.824 151.289,45.606 151.739,45.769 151.903 C 46.451 152.584,350.180 152.248,350.311 151.565 C 350.378 151.216,349.706 150.181,348.817 149.265 C 347.928 148.349,347.200 147.511,347.200 147.404 C 347.200 147.205,346.203 145.935,345.300 144.984 C 345.025 144.694,344.800 144.337,344.800 144.189 C 344.800 144.042,344.260 143.417,343.600 142.800 C 342.940 142.183,342.400 141.391,342.400 141.040 C 342.400 140.688,342.247 140.400,342.061 140.400 C 341.874 140.400,341.397 139.680,341.000 138.800 C 340.603 137.920,340.126 137.200,339.939 137.200 C 339.753 137.200,339.600 136.964,339.600 136.675 C 339.600 136.387,339.240 135.764,338.800 135.292 C 338.360 134.820,338.000 134.156,338.000 133.817 C 338.000 133.478,337.820 133.200,337.600 133.200 C 337.380 133.200,337.200 132.964,337.200 132.675 C 337.200 132.387,336.840 131.764,336.400 131.292 C 335.960 130.820,335.600 130.171,335.600 129.850 C 335.600 129.529,335.457 129.207,335.281 129.133 C 334.851 128.953,333.200 125.361,333.200 124.604 C 333.200 124.272,333.020 124.000,332.800 124.000 C 332.580 124.000,332.400 123.460,332.400 122.800 C 332.400 122.140,332.580 121.600,332.800 121.600 C 333.020 121.600,333.200 121.768,333.200 121.973 C 333.200 122.178,333.515 122.450,333.900 122.577 C 334.285 122.704,335.230 123.344,336.000 124.000 C 336.770 124.655,337.617 125.373,337.883 125.596 C 338.149 125.818,338.572 126.000,338.823 126.000 C 339.074 126.000,339.783 126.540,340.400 127.200 C 341.017 127.860,341.769 128.400,342.072 128.400 C 342.375 128.400,342.883 128.760,343.200 129.200 C 343.517 129.640,344.007 130.000,344.288 130.000 C 344.570 130.000,344.800 130.150,344.800 130.332 C 344.800 130.515,345.295 130.919,345.900 131.230 C 346.505 131.540,347.291 132.111,347.647 132.497 C 348.003 132.884,348.505 133.200,348.764 133.200 C 349.022 133.200,349.620 133.560,350.092 134.000 C 350.564 134.440,351.187 134.800,351.475 134.800 C 351.764 134.800,352.000 134.980,352.000 135.200 C 352.000 135.420,352.360 135.600,352.800 135.600 C 353.240 135.600,353.600 135.780,353.600 136.000 C 353.600 136.220,353.945 136.400,354.367 136.400 C 354.788 136.400,355.193 136.555,355.267 136.745 C 355.403 137.097,359.520 139.272,362.878 140.765 C 363.911 141.224,365.216 141.600,365.778 141.600 C 366.340 141.600,366.800 141.780,366.800 142.000 C 366.800 142.220,367.340 142.400,368.000 142.400 C 368.660 142.400,369.200 142.580,369.200 142.800 C 369.200 143.020,369.740 143.200,370.400 143.200 C 371.060 143.200,371.600 143.380,371.600 143.600 C 371.600 143.820,372.500 144.000,373.600 144.000 C 374.700 144.000,375.600 144.180,375.600 144.400 C 375.600 144.635,377.000 144.800,379.000 144.800 C 381.267 144.800,382.400 144.649,382.400 144.347 C 382.400 143.771,380.363 142.001,379.700 142.000 C 379.425 142.000,379.200 141.820,379.200 141.600 C 379.200 141.380,378.912 141.200,378.560 141.200 C 378.209 141.200,377.417 140.660,376.800 140.000 C 376.183 139.340,375.563 138.800,375.421 138.800 C 375.280 138.800,374.744 138.395,374.232 137.900 C 372.972 136.683,371.635 135.600,371.391 135.600 C 371.281 135.600,369.317 133.755,367.028 131.500 C 364.738 129.245,362.315 126.950,361.644 126.400 C 360.973 125.850,360.419 125.181,360.412 124.913 C 360.400 124.440,359.380 123.204,356.300 119.929 C 355.475 119.052,354.800 118.202,354.800 118.039 C 354.800 117.876,354.011 116.920,353.048 115.914 C 352.084 114.908,351.229 113.913,351.148 113.703 C 350.938 113.162,348.438 110.133,346.900 108.558 C 346.185 107.826,345.600 107.023,345.600 106.774 C 345.600 106.525,345.060 105.817,344.400 105.200 C 343.740 104.583,343.200 103.926,343.200 103.740 C 343.199 103.446,342.603 102.643,340.808 100.517 C 340.584 100.251,340.400 99.873,340.400 99.676 C 340.400 99.480,339.860 98.754,339.200 98.063 C 338.540 97.372,338.000 96.705,338.000 96.580 C 338.000 96.291,335.738 93.407,334.300 91.863 C 333.695 91.213,333.200 90.526,333.200 90.337 C 333.200 90.148,332.660 89.428,332.000 88.737 C 331.340 88.046,330.800 87.310,330.800 87.101 C 330.800 86.892,330.260 86.217,329.600 85.600 C 328.940 84.983,328.400 84.263,328.400 84.000 C 328.400 83.737,327.860 83.017,327.200 82.400 C 326.540 81.783,326.000 81.150,326.000 80.993 C 326.000 80.594,323.228 76.840,321.900 75.441 C 321.295 74.803,320.800 74.128,320.800 73.941 C 320.800 73.754,320.080 72.859,319.200 71.952 C 318.320 71.045,317.600 70.131,317.600 69.920 C 317.600 69.710,316.919 68.876,316.087 68.069 C 315.255 67.261,314.132 65.970,313.592 65.200 C 312.110 63.090,300.841 52.000,300.178 52.000 C 299.860 52.000,299.600 51.820,299.600 51.600 C 299.600 51.380,299.240 51.200,298.800 51.200 C 298.360 51.200,298.000 51.020,298.000 50.800 C 298.000 50.580,297.640 50.400,297.200 50.400 C 296.760 50.400,296.400 50.220,296.400 50.000 C 296.400 49.780,295.860 49.600,295.200 49.600 C 294.540 49.600,294.000 49.420,294.000 49.200 C 294.000 48.980,293.291 48.800,292.424 48.800 C 291.557 48.800,290.736 48.620,290.600 48.400 C 290.278 47.878,284.522 47.878,284.200 48.400 C 284.064 48.620,283.331 48.800,282.571 48.800 C 281.811 48.800,280.877 48.959,280.495 49.153 C 280.113 49.348,279.260 49.751,278.600 50.051 C 277.940 50.350,277.109 50.911,276.753 51.297 C 276.397 51.684,275.882 52.000,275.607 52.000 C 274.970 52.000,272.400 54.787,272.400 55.478 C 272.400 55.765,272.220 56.000,272.000 56.000 C 271.780 56.000,271.600 56.360,271.600 56.800 C 271.600 57.240,271.420 57.600,271.200 57.600 C 270.980 57.600,270.800 57.960,270.800 58.400 C 270.800 58.840,270.620 59.200,270.400 59.200 C 270.152 59.200,270.000 61.400,270.000 65.000 C 270.000 68.600,270.152 70.800,270.400 70.800 C 270.620 70.800,270.800 71.340,270.800 72.000 C 270.800 72.660,270.980 73.200,271.200 73.200 C 271.420 73.200,271.600 73.650,271.600 74.200 C 271.600 74.750,271.780 75.200,272.000 75.200 C 272.220 75.200,272.400 75.740,272.400 76.400 C 272.400 77.060,272.580 77.600,272.800 77.600 C 273.020 77.600,273.200 77.960,273.200 78.400 C 273.200 78.840,273.380 79.200,273.600 79.200 C 273.820 79.200,274.000 79.729,274.000 80.376 C 274.000 81.023,274.180 81.664,274.400 81.800 C 274.620 81.936,274.800 82.566,274.800 83.200 C 274.800 83.834,274.980 84.464,275.200 84.600 C 275.420 84.736,275.600 85.467,275.600 86.224 C 275.600 86.981,275.780 87.600,276.000 87.600 C 276.220 87.600,276.400 88.284,276.400 89.120 C 276.400 89.956,276.606 90.846,276.857 91.097 C 277.508 91.748,277.516 107.295,276.866 107.511 C 276.610 107.597,276.400 108.192,276.400 108.833 C 276.400 109.475,276.220 110.000,276.000 110.000 C 275.780 110.000,275.600 110.450,275.600 111.000 C 275.600 111.550,275.420 112.000,275.200 112.000 C 274.980 112.000,274.800 112.360,274.800 112.800 C 274.800 113.240,274.620 113.600,274.400 113.600 C 274.180 113.600,274.000 113.960,274.000 114.400 C 274.000 114.840,273.850 115.200,273.668 115.200 C 273.485 115.200,273.080 115.692,272.768 116.292 C 272.099 117.579,266.597 123.200,266.006 123.200 C 265.783 123.200,265.600 123.380,265.600 123.600 C 265.600 123.820,265.330 124.000,265.000 124.000 C 264.670 124.000,264.400 124.146,264.400 124.325 C 264.400 124.504,263.770 124.898,263.000 125.200 C 262.230 125.502,261.600 125.896,261.600 126.075 C 261.600 126.254,261.240 126.400,260.800 126.400 C 260.360 126.400,260.000 126.564,260.000 126.765 C 260.000 126.966,259.235 127.256,258.300 127.410 C 257.365 127.564,256.420 127.827,256.200 127.995 C 255.743 128.343,253.817 128.755,251.200 129.065 C 250.210 129.182,249.229 129.440,249.020 129.639 C 248.495 130.138,238.910 130.102,238.600 129.600 C 238.464 129.380,237.821 129.200,237.171 129.200 C 235.975 129.200,234.987 128.772,233.249 127.500 L 232.292 126.800 234.346 126.800 C 235.476 126.800,236.400 126.980,236.400 127.200 C 236.400 127.420,237.120 127.600,238.000 127.600 C 238.880 127.600,239.600 127.780,239.600 128.000 C 239.600 128.220,240.125 128.400,240.767 128.400 C 241.408 128.400,242.004 128.612,242.091 128.872 C 242.180 129.139,242.546 129.229,242.934 129.081 C 243.769 128.760,243.450 126.935,242.395 126.000 C 242.023 125.670,241.398 124.779,241.007 124.020 C 240.616 123.260,240.050 122.392,239.748 122.091 C 239.447 121.790,239.200 121.384,239.200 121.190 C 239.200 120.995,238.795 120.423,238.300 119.918 C 237.805 119.413,237.145 118.505,236.832 117.900 C 236.520 117.295,236.115 116.800,235.932 116.800 C 235.750 116.800,235.600 116.575,235.600 116.300 C 235.599 116.025,235.134 115.260,234.565 114.600 C 233.996 113.940,233.237 112.905,232.879 112.300 C 232.521 111.695,232.086 111.200,231.914 111.200 C 231.741 111.200,231.600 111.012,231.600 110.783 C 231.600 110.554,231.240 109.980,230.800 109.508 C 230.360 109.036,230.000 108.413,230.000 108.125 C 230.000 107.836,229.841 107.600,229.647 107.600 C 229.452 107.600,229.199 107.240,229.084 106.800 C 228.790 105.675,229.932 105.755,232.195 107.018 C 233.198 107.578,234.194 107.927,234.409 107.794 C 234.921 107.478,234.914 105.718,234.400 105.400 C 234.180 105.264,234.000 104.803,234.000 104.376 C 234.000 103.949,233.820 103.600,233.600 103.600 C 233.380 103.600,233.200 103.347,233.200 103.038 C 233.200 102.729,232.861 101.784,232.447 100.938 C 232.033 100.092,231.268 98.500,230.747 97.400 C 230.226 96.300,229.665 95.340,229.500 95.267 C 229.335 95.193,229.200 94.788,229.200 94.367 C 229.200 93.945,229.020 93.600,228.800 93.600 C 228.580 93.600,228.400 93.240,228.400 92.800 C 228.400 92.360,228.220 92.000,228.000 92.000 C 227.780 92.000,227.600 91.764,227.600 91.475 C 227.600 91.187,227.240 90.564,226.800 90.092 C 226.360 89.620,226.000 88.956,226.000 88.617 C 226.000 88.278,225.843 88.000,225.650 88.000 C 225.457 88.000,225.197 87.484,225.070 86.852 C 224.944 86.221,224.292 84.773,223.620 83.635 C 222.949 82.496,222.400 81.393,222.400 81.182 C 222.400 80.972,222.254 80.800,222.075 80.800 C 221.896 80.800,221.502 80.170,221.200 79.400 C 220.898 78.630,220.526 78.000,220.374 78.000 C 220.222 78.000,219.873 77.460,219.600 76.800 C 219.327 76.140,218.945 75.600,218.751 75.600 C 218.558 75.600,218.400 75.240,218.400 74.800 C 218.400 74.360,218.220 74.000,218.000 74.000 C 217.780 74.000,217.600 73.764,217.600 73.475 C 217.600 73.187,217.240 72.564,216.800 72.092 C 216.360 71.620,216.000 70.956,216.000 70.617 C 216.000 70.278,215.820 70.000,215.600 70.000 C 215.380 70.000,215.200 69.820,215.200 69.600 C 215.200 69.380,215.729 69.200,216.376 69.200 C 217.023 69.200,217.664 69.380,217.800 69.600 C 218.360 70.506,220.000 70.042,220.000 68.977 C 220.000 67.826,213.092 60.672,211.491 60.167 C 211.001 60.012,210.309 59.551,209.953 59.143 C 209.597 58.734,209.102 58.400,208.853 58.400 C 208.604 58.400,208.400 58.220,208.400 58.000 C 208.400 57.780,208.130 57.600,207.800 57.600 C 207.470 57.600,207.200 57.420,207.200 57.200 C 207.200 56.980,206.930 56.800,206.600 56.800 C 206.270 56.800,206.000 56.620,206.000 56.400 C 206.000 56.180,205.640 56.000,205.200 56.000 C 204.760 56.000,204.400 55.820,204.400 55.600 C 204.400 55.380,204.040 55.200,203.600 55.200 C 203.160 55.200,202.800 55.020,202.800 54.800 C 202.800 54.580,202.440 54.400,202.000 54.400 C 201.560 54.400,201.200 54.220,201.200 54.000 C 201.200 53.780,200.840 53.600,200.400 53.600 C 199.960 53.600,199.600 53.420,199.600 53.200 C 199.600 52.980,199.240 52.800,198.800 52.800 C 198.360 52.800,198.000 52.620,198.000 52.400 C 198.000 52.180,197.561 52.000,197.024 52.000 C 196.487 52.000,195.936 51.820,195.800 51.600 C 195.664 51.380,195.203 51.200,194.776 51.200 C 194.349 51.200,194.000 51.020,194.000 50.800 C 194.000 50.580,193.460 50.400,192.800 50.400 C 192.140 50.400,191.600 50.220,191.600 50.000 C 191.600 49.780,191.161 49.600,190.624 49.600 C 190.087 49.600,189.536 49.420,189.400 49.200 C 189.264 48.980,188.533 48.800,187.776 48.800 C 187.019 48.800,186.400 48.638,186.400 48.440 C 186.400 48.068,184.404 47.722,180.100 47.348 C 178.725 47.229,177.600 46.957,177.600 46.742 C 177.600 46.316,169.178 46.505,166.800 46.985 C 163.979 47.554,160.400 50.142,160.400 51.614 C 160.400 52.129,153.319 52.116,153.000 51.600 C 152.864 51.380,151.683 51.200,150.376 51.200 C 149.059 51.200,148.000 51.378,148.000 51.600 C 148.000 51.826,146.867 52.000,145.400 52.000 C 143.933 52.000,142.800 52.174,142.800 52.400 C 142.800 52.620,142.384 52.800,141.875 52.800 C 141.367 52.800,140.564 53.160,140.092 53.600 C 139.620 54.040,138.971 54.400,138.650 54.400 C 138.329 54.400,137.828 54.940,137.536 55.600 C 137.244 56.260,136.869 56.800,136.702 56.800 C 136.536 56.800,136.400 57.239,136.400 57.776 C 136.400 58.313,136.220 58.864,136.000 59.000 C 135.780 59.136,135.600 60.407,135.600 61.824 C 135.600 63.275,135.775 64.400,136.000 64.400 C 136.220 64.400,136.400 64.923,136.400 65.562 C 136.400 66.774,137.908 70.000,138.474 70.000 C 138.653 70.000,138.802 70.225,138.804 70.500 C 138.806 70.775,139.377 71.450,140.074 72.000 C 140.771 72.550,141.566 73.225,141.842 73.500 C 142.117 73.775,142.611 74.000,142.938 74.000 C 143.265 74.000,143.593 74.174,143.667 74.386 C 144.088 75.606,146.592 74.995,146.466 73.704 C 146.385 72.870,146.637 71.991,147.170 71.242 C 147.627 70.601,148.000 69.894,148.000 69.672 C 148.000 69.449,148.540 69.028,149.200 68.736 C 149.860 68.444,150.400 68.069,150.400 67.902 C 150.400 67.736,150.760 67.600,151.200 67.600 C 151.640 67.600,152.000 67.420,152.000 67.200 C 152.000 66.980,152.540 66.800,153.200 66.800 C 153.860 66.800,154.400 66.620,154.400 66.400 C 154.400 66.180,155.120 66.000,156.000 66.000 C 156.880 66.000,157.600 66.180,157.600 66.400 C 157.600 66.620,158.123 66.800,158.762 66.800 C 161.477 66.800,170.000 73.933,170.000 76.205 C 170.000 76.532,170.180 76.800,170.400 76.800 C 170.620 76.800,170.800 76.980,170.800 77.200 C 170.800 77.456,167.133 77.600,160.600 77.600 L 150.400 77.600 150.400 78.656 C 150.400 79.860,151.381 80.769,152.700 80.787 C 153.195 80.794,153.600 80.980,153.600 81.200 C 153.600 81.420,154.320 81.600,155.200 81.600 C 156.080 81.600,156.800 81.780,156.800 82.000 C 156.800 82.220,157.700 82.400,158.800 82.400 C 159.900 82.400,160.800 82.580,160.800 82.800 C 160.800 83.020,161.599 83.200,162.576 83.200 C 163.553 83.200,164.464 83.380,164.600 83.600 C 164.736 83.820,165.456 84.000,166.200 84.000 C 166.944 84.000,167.664 84.180,167.800 84.400 C 167.936 84.620,168.487 84.800,169.024 84.800 L 170.000 84.800 170.000 89.376 C 170.000 91.996,169.829 94.058,169.600 94.200 C 169.380 94.336,169.200 95.067,169.200 95.824 C 169.200 96.581,169.020 97.200,168.800 97.200 C 168.580 97.200,168.400 97.740,168.400 98.400 C 168.400 99.060,168.220 99.600,168.000 99.600 C 167.780 99.600,167.600 99.960,167.600 100.400 C 167.600 100.840,167.420 101.200,167.200 101.200 C 166.980 101.200,166.800 101.490,166.800 101.846 C 166.800 102.559,165.175 105.722,164.700 105.933 C 164.535 106.007,164.400 106.412,164.400 106.833 C 164.400 107.255,164.220 107.600,164.000 107.600 C 163.780 107.600,163.600 107.836,163.600 108.125 C 163.600 108.413,163.285 108.998,162.900 109.425 C 162.515 109.852,161.662 110.921,161.005 111.800 C 159.605 113.675,154.954 118.400,154.507 118.401 C 154.338 118.401,153.570 118.941,152.800 119.600 C 152.030 120.259,151.218 120.799,150.996 120.799 C 150.774 120.800,150.353 121.184,150.059 121.654 C 149.382 122.738,150.109 123.351,151.600 122.951 C 154.928 122.059,162.043 122.338,163.455 123.415 C 165.085 124.658,164.520 125.564,162.100 125.587 C 161.385 125.594,160.800 125.780,160.800 126.000 C 160.800 126.246,158.808 126.400,155.624 126.400 C 152.604 126.400,150.344 126.233,150.200 126.000 C 150.064 125.780,148.973 125.600,147.776 125.600 C 146.579 125.600,145.600 125.420,145.600 125.200 C 145.600 124.980,145.060 124.800,144.400 124.800 C 143.740 124.800,143.200 124.620,143.200 124.400 C 143.200 124.180,142.838 124.000,142.395 124.000 C 141.617 124.000,141.231 123.858,139.305 122.862 C 138.813 122.608,138.138 122.400,137.805 122.400 C 137.472 122.400,137.200 122.220,137.200 122.000 C 137.200 121.780,136.964 121.600,136.675 121.600 C 136.387 121.600,135.764 121.240,135.292 120.800 C 134.820 120.360,134.240 120.000,134.003 120.000 C 133.447 120.000,126.800 113.375,126.800 112.821 C 126.800 112.589,126.620 112.400,126.400 112.400 C 126.180 112.400,126.000 112.130,126.000 111.800 C 126.000 111.470,125.828 111.200,125.618 111.200 C 125.408 111.200,125.118 110.570,124.974 109.800 C 124.829 109.030,124.590 108.400,124.443 108.400 C 124.295 108.400,123.943 107.545,123.661 106.500 C 123.378 105.455,122.957 104.253,122.725 103.828 C 122.141 102.759,122.171 88.469,122.758 87.882 C 123.001 87.639,123.200 86.677,123.200 85.744 C 123.200 84.811,123.380 83.936,123.600 83.800 C 123.820 83.664,124.000 82.933,124.000 82.176 C 124.000 81.419,124.162 80.800,124.361 80.800 C 124.559 80.800,124.847 79.720,125.000 78.400 C 125.153 77.080,125.441 76.000,125.639 76.000 C 125.838 76.000,126.000 75.728,126.000 75.395 C 126.000 75.062,126.180 74.432,126.400 73.995 C 126.620 73.558,126.980 72.842,127.200 72.405 C 127.420 71.968,127.600 71.248,127.600 70.805 C 127.600 70.362,127.780 70.000,128.000 70.000 C 128.220 70.000,128.400 69.460,128.400 68.800 C 128.400 68.140,128.580 67.600,128.800 67.600 C 129.022 67.600,129.200 66.533,129.200 65.200 C 129.200 63.867,129.378 62.800,129.600 62.800 C 129.820 62.800,130.000 62.170,130.000 61.400 C 130.000 60.630,129.820 60.000,129.600 60.000 C 129.378 60.000,129.200 58.933,129.200 57.600 C 129.200 56.267,129.022 55.200,128.800 55.200 C 128.580 55.200,128.400 54.840,128.400 54.400 C 128.400 53.960,128.220 53.600,128.000 53.600 C 127.780 53.600,127.600 53.324,127.600 52.987 C 127.600 52.649,127.015 51.767,126.300 51.027 C 125.585 50.286,124.723 49.313,124.385 48.863 C 123.656 47.895,119.435 45.600,118.383 45.600 C 117.978 45.600,117.536 45.420,117.400 45.200 C 117.078 44.678,107.392 44.753,105.800 45.290 " stroke="none" fill="#040404" fill-rule="evenodd"></path></g></svg>